<svg width="366" height="92" xmlns="http://www.w3.org/2000/svg" xmlns:xlink="http://www.w3.org/1999/xlink" xml:space="preserve" overflow="hidden"><defs><clipPath id="clip0"><rect x="214" y="111" width="366" height="92"/></clipPath></defs><g clip-path="url(#clip0)" transform="translate(-214 -111)"><path d="M10.5159 0 21.2229 0 15.5826 40.7251 15.487 41.2987 15.1046 43.9754 15.8216 41.5855 16.1084 40.9163 22.7047 23.0871 33.2206 23.0871 23.4217 46.3654 26.4331 73.1331 15.4392 73.1331 14.4832 54.0133 14.4832 52.8183 14.3876 49.3768 14.1008 51.9101 14.0052 52.4837 11.1373 73.1809 0 73.1809 10.5159 0ZM36.4709 23.0871 48.134 23.0871 48.851 43.832 48.851 46.9868 49.329 43.832 52.6749 23.0871 61.6134 23.0871 54.0133 73.1331 43.4975 73.1331 42.4459 50.1894 42.3503 49.6158 42.3503 47.0824 42.0635 50.1894 38.5263 73.1331 28.9664 73.1331 36.3275 23.1349ZM108.839 23.0871 119.69 23.0871 112.998 65.1506C111.946 72.3205 107.262 74.7105 97.702 74.3281 87.4729 73.8501 87.6641 67.1582 87.9987 64.099 90.8031 48.3888 92.9856 34.7502 94.5472 23.1827L105.541 23.1827 99.0882 64.2902C98.9634 65.1123 99.4787 65.8958 100.283 66.1066 101.166 66.2696 102.013 65.6859 102.176 64.8036 102.185 64.7601 102.191 64.7166 102.195 64.6726ZM124.135 23.0871 141.725 23.0871 140.674 31.0696 134.077 31.0696 132.643 40.9641 139.096 40.9641 137.806 49.329 131.592 49.329 124.756 91.5359 113.571 91.5359 124.087 23.0871ZM67.684 73.1331 70.0739 63.2864 74.5671 63.2864 73.6111 73.1331 84.0313 73.1331 86.8993 22.9437 72.4639 22.9437 57.1681 73.1331ZM72.1293 54.9693 77.4828 33.364 77.7218 32.408 78.5822 28.7274 78.0086 32.5514 77.913 33.5074 75.523 55.0171Z" fill="#209DD8" transform="matrix(1 0 0 1.00285 214 111.102)"/><path d="M146.027 22.9437 156.543 22.9437 149.612 72.9419 139.096 72.9419 146.027 22.9437ZM159.268 22.9437 169.114 22.9437 170.739 48.5642 174.324 22.9915 183.55 22.9915 176.523 72.9419 166.677 72.9419 164.765 48.4686 161.419 72.9419 152.337 72.9419 159.172 22.9437ZM192.249 52.8661 190.815 62.6172C190.624 64.338 190.959 65.0072 192.106 65.0072 192.966 65.0225 193.712 64.4173 193.874 63.5732L194.018 62.6172 195.069 55.1605C195.308 53.3919 195.165 52.6749 193.444 51.6712L186.896 47.8472C183.789 45.9352 183.072 43.0673 183.55 38.7653L184.41 33.0294C185.701 23.7085 187.565 22.4657 197.89 22.4657 205.92 22.4657 209.839 23.1827 208.883 29.8268L208.549 32.8382 207.497 40.2471 197.125 40.2471 198.081 33.0772C198.368 31.3564 198.224 30.6872 196.79 30.6872 195.595 30.6872 195.213 31.5476 194.974 33.0772L194.352 37.8571C194.066 39.6257 194.352 40.3427 195.93 41.3465L201.952 44.8358C205.585 46.9868 206.254 49.6158 205.681 53.4397L204.39 62.8084C203.912 66.4412 203.721 68.9267 202 70.8387 199.993 73.0375 196.742 73.2287 191.006 73.2287 180.825 73.2287 179.057 72.1771 180.299 62.8084L181.733 52.7705ZM222.602 22.9437 217.057 62.6172C216.818 64.338 217.057 65.0072 218.252 65.0072 219.159 65.0622 219.945 64.3834 220.021 63.4776L220.116 62.6172 225.661 22.9437 236.177 22.9437 230.68 62.904C229.389 72.0815 227.716 73.3243 217.105 73.3243 206.685 73.3243 205.155 72.2727 206.446 62.904L212.038 22.9437ZM238.615 22.9437 249.13 22.9437 243.299 64.816 249.608 64.816 248.509 72.9419 231.636 72.9419 238.662 22.9437ZM262.897 22.9437 275.803 22.9437 275.229 72.8941 265.287 72.8941 265.86 63.0474 261.558 63.0474 259.455 72.8463 249.608 72.8463ZM266.482 54.9693 267.82 33.9376 263.327 54.9693ZM283.45 31.213 278.049 31.213 279.148 22.9437 300.515 22.9437 299.368 31.213 293.966 31.213 288.135 72.8941 277.619 72.8941 283.45 31.213ZM302.236 22.9437 312.751 22.9437 305.821 72.8941 295.305 72.8941 302.236 22.9437ZM327.283 22.4657C337.798 22.4657 339.232 23.7085 337.99 32.9816L333.879 62.8084C332.588 72.0337 330.915 73.3243 320.304 73.3243 309.884 73.3243 308.354 72.2249 309.645 62.8084L313.803 32.9816C315.094 23.8997 316.432 22.4657 327.33 22.4657M320.256 62.4738C319.969 64.1946 320.16 65.0072 321.403 65.0072 322.297 65.088 323.087 64.4283 323.167 63.5345 323.169 63.5154 323.171 63.4967 323.172 63.4776L323.315 62.5216 327.426 33.2684C327.617 31.4998 327.426 30.8784 325.992 30.8784 325.132 30.8784 324.558 31.3564 324.415 32.3124 324.415 32.7904 324.319 32.9338 324.271 33.2684ZM341.766 22.9437 351.612 22.9437 353.285 48.5642 356.87 22.9915 366.048 22.9915 358.973 72.9419 349.222 72.9419 347.31 48.4686 343.964 72.9419 334.883 72.9419 341.766 22.9437Z" fill="#B5BABD" transform="matrix(1 0 0 1.00285 214 111.102)"/></g></svg>