<?xml version="1.0" encoding="UTF-8" ?>
<!DOCTYPE svg PUBLIC "-//W3C//DTD SVG 1.1//EN" "http://www.w3.org/Graphics/SVG/1.1/DTD/svg11.dtd">
<svg width="487pt" height="484pt" viewBox="0 0 487 484" version="1.1" xmlns="http://www.w3.org/2000/svg">
<g id="#f2812dff">
<path fill="#fce6d5" opacity="1.00" d=" M 232.05 2.20 C 237.25 0.70 242.81 2.32 247.97 0.78 C 258.03 0.94 268.10 1.49 278.17 1.78 L 278.84 2.26 C 282.52 2.65 286.43 1.87 289.96 3.19 C 292.96 3.80 295.96 4.49 299.03 4.75 C 300.38 5.18 301.77 5.53 303.17 5.81 C 306.82 6.51 310.48 7.16 314.09 8.06 C 315.43 8.33 316.71 8.77 317.94 9.38 C 318.69 9.46 319.44 9.53 320.20 9.59 C 321.46 10.11 322.72 10.65 323.98 11.19 C 326.04 11.63 328.07 12.21 330.11 12.78 C 331.11 13.13 332.11 13.46 333.13 13.78 C 334.58 14.18 336.05 14.53 337.54 14.82 C 337.52 15.15 337.50 15.82 337.48 16.15 C 338.15 16.25 339.48 16.44 340.14 16.53 C 341.39 17.11 342.66 17.66 343.93 18.21 C 346.67 19.06 349.38 20.05 351.97 21.32 C 352.66 21.74 353.36 22.15 354.07 22.57 L 355.30 22.14 C 355.38 22.43 355.55 23.01 355.63 23.30 C 357.95 24.02 360.14 25.13 362.00 26.71 C 362.25 26.66 362.76 26.55 363.01 26.50 C 364.05 27.83 365.80 28.14 366.99 29.30 C 368.34 29.83 369.70 30.40 370.91 31.22 C 373.21 31.98 374.93 33.73 377.13 34.63 C 378.15 35.56 379.33 36.26 380.65 36.72 L 380.41 37.35 C 382.32 37.87 384.10 38.82 385.13 40.58 L 386.46 40.14 L 386.43 41.23 C 387.72 41.69 388.85 42.46 389.98 43.25 C 391.40 44.28 392.79 45.36 394.08 46.55 L 395.01 46.33 C 396.23 48.36 398.01 49.92 400.08 51.03 C 403.78 53.95 407.11 57.37 411.08 59.93 C 411.56 60.92 412.33 61.59 413.40 61.94 C 413.39 62.32 413.37 63.06 413.35 63.43 L 414.56 63.35 L 414.51 64.12 C 419.81 68.22 424.25 73.36 428.55 78.47 C 433.48 83.57 437.67 89.32 442.00 94.92 C 443.17 97.08 444.62 99.07 446.33 100.85 C 446.95 103.37 449.08 105.00 450.64 106.94 L 450.44 107.89 C 453.38 111.13 454.71 115.41 457.24 118.93 C 458.09 120.75 459.19 122.47 459.69 124.43 L 460.69 124.34 C 460.62 124.65 460.48 125.27 460.42 125.59 L 461.24 125.53 C 462.20 128.10 463.18 130.69 464.57 133.07 L 464.55 133.94 C 465.50 135.18 466.13 136.60 466.59 138.10 C 467.15 139.46 467.67 140.89 468.61 142.06 C 468.58 142.31 468.52 142.82 468.49 143.07 C 469.49 144.72 470.35 146.49 470.65 148.42 L 471.28 148.43 C 471.77 150.37 472.34 152.29 472.76 154.26 C 473.11 155.17 473.45 156.08 473.79 157.00 C 474.33 159.12 474.80 161.33 476.30 163.02 C 476.38 163.77 476.54 165.27 476.62 166.01 C 477.14 167.00 477.49 168.07 477.78 169.15 C 478.43 172.47 479.27 175.76 479.79 179.11 C 480.22 180.71 480.66 182.32 481.20 183.89 C 481.38 185.62 481.37 187.44 482.27 188.99 C 482.44 190.68 482.41 192.44 483.09 194.04 C 483.37 196.54 483.47 199.04 483.55 201.55 L 484.23 201.61 C 484.33 205.88 484.67 210.15 484.67 214.43 L 485.32 214.50 C 485.12 225.62 486.49 236.90 484.75 247.92 C 484.55 254.26 483.68 260.56 482.67 266.80 C 482.49 268.20 482.33 269.62 482.19 271.04 C 481.73 272.36 481.29 273.69 480.79 275.01 C 480.60 276.84 480.47 278.69 480.40 280.54 C 480.20 280.55 479.79 280.56 479.59 280.56 C 479.51 282.20 479.44 283.85 479.39 285.50 L 478.67 285.55 C 478.56 287.37 478.66 289.30 477.68 290.94 C 477.57 291.65 477.46 292.37 477.37 293.09 C 476.79 294.37 476.22 295.65 475.65 296.93 C 475.41 298.35 475.54 300.01 474.34 301.03 C 474.37 301.26 474.44 301.70 474.47 301.92 C 473.87 303.26 473.30 304.62 472.66 305.95 C 472.55 307.16 472.46 308.37 472.37 309.59 L 471.35 309.69 C 471.46 310.10 471.67 310.93 471.78 311.34 L 470.79 311.50 C 470.18 314.07 470.16 317.39 467.76 319.01 C 467.65 319.51 467.43 320.52 467.31 321.02 C 466.58 322.23 466.30 323.63 465.94 324.98 C 464.75 326.14 464.14 327.70 463.36 329.13 L 463.69 330.26 C 463.35 330.36 462.67 330.55 462.33 330.64 C 462.44 330.99 462.65 331.70 462.75 332.05 C 461.21 333.33 460.77 335.27 460.24 337.11 C 458.73 339.19 457.23 341.33 456.33 343.76 L 455.35 343.68 C 455.41 344.02 455.51 344.70 455.56 345.04 C 454.91 345.91 454.26 346.78 453.63 347.66 C 452.68 349.49 452.14 351.67 450.41 352.97 C 450.51 353.33 450.71 354.04 450.81 354.39 L 449.23 354.61 C 449.32 355.06 449.50 355.97 449.59 356.43 L 448.82 356.62 C 447.87 358.11 446.80 359.51 445.78 360.96 C 442.79 364.52 440.61 368.76 437.23 371.98 C 437.34 372.33 437.55 373.05 437.66 373.40 L 436.39 373.37 L 436.47 374.66 C 436.04 374.64 435.17 374.60 434.73 374.57 C 434.62 375.33 434.40 376.83 434.29 377.59 C 433.94 377.53 433.25 377.42 432.90 377.37 C 432.35 378.46 431.79 379.56 431.24 380.65 L 430.43 380.30 L 430.50 381.45 L 429.40 381.62 L 429.66 382.57 L 428.79 382.43 C 428.52 382.83 427.97 383.63 427.70 384.03 C 427.11 384.82 426.37 385.44 425.47 385.88 C 425.43 386.18 425.36 386.79 425.32 387.09 C 422.40 389.26 420.24 392.23 417.65 394.75 L 417.45 395.60 L 416.40 395.55 L 416.54 396.14 C 410.74 400.76 405.27 405.81 399.94 410.97 C 394.17 416.19 388.21 421.30 383.10 427.17 C 380.50 427.90 379.27 430.62 376.85 431.72 C 375.79 432.34 374.89 433.16 374.07 434.05 C 371.55 435.17 369.95 437.55 367.54 438.83 L 367.53 439.66 L 366.32 439.31 L 366.51 440.59 C 366.03 440.58 365.06 440.56 364.58 440.55 C 364.53 440.95 364.44 441.75 364.40 442.16 C 363.17 442.57 362.00 443.11 360.83 443.66 C 359.26 444.89 357.17 445.45 355.99 447.16 C 352.73 448.35 349.96 450.50 347.07 452.36 C 346.14 452.78 345.22 453.21 344.30 453.66 L 344.34 454.80 L 343.12 454.54 C 342.51 454.84 341.28 455.46 340.67 455.77 C 340.59 456.00 340.42 456.46 340.33 456.69 C 339.99 456.63 339.31 456.50 338.97 456.44 C 338.00 457.15 337.04 457.87 336.08 458.60 C 335.72 458.52 335.01 458.36 334.65 458.28 L 334.40 459.31 C 330.67 460.12 327.63 462.66 323.99 463.73 C 321.80 465.73 318.61 465.65 316.22 467.31 C 314.01 467.69 311.75 468.21 309.92 469.60 C 309.60 469.54 308.94 469.44 308.62 469.39 L 308.53 470.22 C 306.24 470.40 304.02 471.06 302.07 472.29 C 300.74 472.54 299.41 472.81 298.14 473.29 C 297.04 473.65 295.96 474.05 294.90 474.47 C 294.59 474.43 293.96 474.35 293.65 474.30 L 293.51 475.25 C 291.35 475.33 289.16 475.44 287.11 476.16 C 286.02 476.41 284.91 476.63 283.94 477.20 C 282.64 477.36 281.35 477.52 280.06 477.69 C 278.48 478.52 276.69 478.61 274.96 478.83 C 272.64 479.96 270.00 479.60 267.50 479.66 L 267.52 480.39 C 264.88 480.51 262.25 480.69 259.61 480.74 L 259.53 481.42 C 257.21 481.50 254.88 481.65 252.56 481.72 L 252.50 482.38 C 241.66 482.37 230.82 483.17 219.99 482.56 C 214.44 482.55 208.99 481.39 203.46 481.35 L 203.55 480.64 C 201.19 480.63 198.83 480.54 196.48 480.46 C 196.48 480.27 196.47 479.88 196.47 479.69 C 194.61 479.57 192.74 479.46 190.94 478.94 C 189.29 478.61 187.64 478.32 186.01 477.92 C 184.32 477.62 182.63 477.32 180.99 476.85 C 177.94 476.44 174.77 476.13 172.05 474.56 C 171.18 474.51 170.32 474.47 169.46 474.44 L 169.39 473.61 C 168.78 473.55 167.54 473.44 166.93 473.38 C 166.08 473.10 164.37 472.54 163.52 472.26 C 163.50 472.13 163.47 471.87 163.46 471.73 C 161.94 471.64 160.47 471.34 159.05 470.82 C 158.05 470.48 157.06 470.16 156.06 469.85 C 155.04 469.51 154.05 469.13 153.08 468.70 C 151.39 468.15 149.72 467.53 148.16 466.70 C 147.12 466.38 146.10 466.06 145.08 465.72 C 144.05 465.22 143.01 464.71 141.98 464.24 C 140.72 463.67 139.44 463.12 138.19 462.55 C 137.05 462.04 135.86 461.60 134.61 461.52 C 134.53 461.21 134.37 460.59 134.29 460.28 L 132.97 460.66 C 131.55 459.34 129.76 458.60 128.02 457.83 C 127.31 457.38 126.61 456.93 125.91 456.48 L 125.06 456.47 C 122.93 454.70 120.36 453.63 117.99 452.24 C 117.47 451.99 116.44 451.47 115.92 451.22 C 114.74 450.54 113.53 449.90 112.32 449.29 L 112.29 448.38 C 111.95 448.43 111.26 448.54 110.92 448.60 C 109.11 446.77 106.75 445.65 104.87 443.91 C 104.41 443.74 103.47 443.39 103.00 443.22 C 102.02 441.78 100.52 440.92 98.98 440.19 C 98.41 439.91 97.28 439.36 96.71 439.08 L 96.57 438.34 L 95.79 438.48 C 95.54 438.19 95.03 437.60 94.78 437.31 C 94.26 436.05 93.09 435.55 91.94 435.06 C 89.81 433.49 88.26 430.78 85.50 430.37 L 85.59 429.76 C 85.26 429.52 84.61 429.04 84.29 428.80 C 82.71 427.25 80.99 425.85 79.12 424.68 C 76.05 421.73 73.59 418.00 69.65 415.99 C 69.66 415.62 69.67 414.88 69.68 414.51 L 68.38 414.55 L 68.63 413.27 L 67.59 413.67 L 67.53 412.49 L 66.37 412.51 L 66.59 411.85 C 62.91 409.71 60.95 405.80 58.19 402.73 C 57.97 402.40 57.53 401.73 57.30 401.40 L 56.43 401.47 C 56.40 401.00 56.33 400.05 56.30 399.58 C 55.92 399.57 55.17 399.56 54.79 399.55 C 53.48 395.85 49.98 393.59 47.80 390.46 C 46.58 388.61 45.68 386.52 44.00 385.03 C 41.85 381.59 39.68 378.14 37.23 374.91 C 35.96 373.10 35.01 371.10 34.18 369.06 C 32.72 367.18 31.66 365.04 30.39 363.04 L 30.62 361.50 C 30.09 361.83 29.02 362.49 28.49 362.82 C 28.84 362.39 29.53 361.53 29.87 361.11 C 29.26 360.36 28.03 358.87 27.41 358.12 C 27.50 357.77 27.66 357.06 27.74 356.71 L 26.40 356.55 L 26.71 355.23 L 25.35 355.44 C 25.41 355.06 25.52 354.30 25.58 353.93 C 24.92 352.62 24.28 351.31 23.66 350.00 C 23.16 348.24 22.37 346.59 21.43 345.03 C 21.46 344.74 21.50 344.16 21.53 343.86 C 21.01 343.17 19.98 341.78 19.46 341.09 C 19.57 340.73 19.79 340.01 19.90 339.65 L 18.83 339.53 C 18.73 338.24 18.32 337.09 17.58 336.08 C 17.51 335.48 17.38 334.29 17.32 333.69 L 16.30 333.64 C 16.32 333.21 16.35 332.37 16.36 331.95 C 15.82 330.67 15.31 329.38 14.81 328.08 C 14.48 327.03 14.11 325.99 13.69 324.98 C 13.66 324.33 13.59 323.04 13.56 322.39 L 12.59 322.48 C 12.50 321.87 12.33 320.65 12.25 320.03 C 11.88 318.99 11.56 317.93 11.25 316.87 C 10.27 314.51 9.54 312.05 9.31 309.49 L 8.64 309.52 C 8.84 306.25 7.53 303.19 7.22 299.98 C 6.57 298.36 6.30 296.63 6.26 294.89 C 4.47 290.98 4.45 286.64 4.37 282.43 L 3.69 282.50 C 3.56 279.68 4.00 276.68 2.78 274.04 C 2.57 269.49 2.43 264.95 2.46 260.40 L 1.57 260.64 C 2.06 253.29 0.70 245.84 2.24 238.58 C 2.58 235.82 2.50 233.02 2.58 230.24 L 3.43 230.75 C 3.45 228.48 3.60 226.22 3.85 223.97 C 4.59 221.03 4.42 217.98 4.79 214.99 C 5.40 213.71 5.59 212.30 5.84 210.93 C 7.05 204.59 8.66 198.33 9.74 191.97 C 10.81 190.09 11.34 188.00 11.73 185.90 C 12.26 184.62 12.77 183.34 13.27 182.06 C 13.67 180.31 14.19 178.59 14.68 176.86 C 15.23 175.60 15.77 174.34 16.30 173.08 C 16.41 170.91 16.90 168.73 18.42 167.09 C 19.43 164.30 20.42 161.47 22.17 159.03 C 22.50 157.96 22.89 156.92 23.35 155.90 C 23.36 155.66 23.39 155.19 23.41 154.95 C 24.92 153.28 25.37 151.05 26.21 149.03 C 27.35 146.51 28.60 143.98 30.58 142.00 C 30.53 141.74 30.43 141.23 30.37 140.97 C 31.32 140.00 32.18 138.96 32.70 137.69 C 33.28 136.34 33.94 135.00 35.05 134.00 C 35.31 133.50 35.83 132.51 36.09 132.01 C 37.02 130.37 38.13 128.81 38.72 127.00 C 42.79 121.70 46.54 116.14 50.74 110.93 C 50.95 110.42 51.37 109.38 51.59 108.87 C 55.10 104.95 58.78 101.06 62.36 97.12 C 68.94 88.80 77.47 82.40 85.14 75.16 C 91.61 69.71 97.32 63.45 103.51 57.70 C 108.71 53.40 114.04 49.26 119.44 45.21 C 125.01 40.12 132.14 37.25 138.23 32.88 C 139.06 32.17 140.01 31.67 141.06 31.36 C 142.82 29.80 144.92 28.76 147.03 27.78 C 149.04 26.78 151.02 25.74 153.02 24.71 C 156.49 23.46 159.65 21.50 163.11 20.24 C 164.06 19.67 165.00 19.07 165.92 18.45 C 166.21 18.45 166.80 18.44 167.09 18.44 C 168.36 17.86 169.61 17.24 170.85 16.59 C 171.57 16.50 172.28 16.40 173.00 16.31 C 174.38 15.75 175.74 15.14 177.09 14.48 C 177.29 14.46 177.70 14.43 177.90 14.41 C 178.89 13.86 179.97 13.53 181.05 13.23 C 181.80 12.98 183.30 12.49 184.05 12.24 C 185.30 11.64 186.60 11.13 187.90 10.60 C 188.63 10.51 189.36 10.42 190.10 10.32 C 191.68 9.59 193.40 9.28 195.14 9.18 C 197.68 8.14 200.34 7.37 203.10 7.26 C 204.74 6.78 206.38 6.30 207.97 5.69 C 209.13 5.55 210.30 5.42 211.47 5.32 L 211.53 4.64 C 216.09 4.57 220.55 3.45 225.10 3.20 C 227.36 2.54 229.73 2.52 232.05 2.20 M 243.05 34.23 C 236.97 34.28 231.02 35.61 224.95 35.79 C 222.98 36.27 220.98 36.61 219.04 37.18 C 216.00 37.66 213.02 38.38 209.99 38.85 C 208.07 39.57 206.00 39.71 204.03 40.26 C 202.05 40.91 200.05 41.52 198.08 42.21 C 197.08 42.55 196.09 42.89 195.11 43.27 C 191.08 44.52 186.61 45.03 183.11 47.53 C 182.83 47.51 182.27 47.48 181.99 47.46 C 179.61 49.37 176.36 49.62 174.01 51.58 C 173.75 51.51 173.23 51.35 172.97 51.27 C 172.08 52.34 170.90 52.84 169.41 52.75 L 169.42 53.35 C 167.50 53.92 165.76 54.95 164.03 55.93 C 161.88 57.74 159.15 58.60 156.64 59.77 L 156.61 60.33 C 154.34 61.36 151.83 62.13 150.09 64.01 C 147.44 65.71 144.48 67.05 142.25 69.31 C 141.52 69.84 140.75 70.30 139.93 70.68 C 137.03 73.03 132.56 74.45 131.95 78.61 C 137.26 74.85 143.21 72.07 149.08 69.28 C 151.36 68.17 153.70 67.17 156.11 66.36 C 158.94 64.87 161.92 63.68 164.98 62.75 C 166.61 62.07 168.27 61.47 170.02 61.17 C 173.29 60.00 176.60 58.90 180.00 58.10 C 182.36 57.42 184.72 56.71 187.13 56.21 C 189.08 55.80 191.07 55.52 192.95 54.82 C 194.47 54.64 196.00 54.49 197.54 54.38 C 197.54 54.22 197.55 53.88 197.55 53.72 C 199.73 53.67 202.06 53.85 204.05 52.79 C 207.02 52.42 210.13 52.86 212.98 51.81 C 223.75 51.19 234.57 51.07 245.35 51.58 C 247.73 49.93 249.40 46.96 252.08 45.99 C 255.32 47.41 257.05 51.09 260.14 52.88 C 262.37 53.51 264.76 53.36 266.95 54.19 C 268.96 54.36 271.06 54.33 272.93 55.23 C 274.62 55.43 276.31 55.64 277.97 56.05 C 279.32 56.42 280.69 56.78 282.04 57.21 C 284.07 57.52 286.09 57.97 287.97 58.84 C 289.39 59.38 290.92 59.50 292.43 59.64 C 292.43 59.84 292.44 60.24 292.44 60.44 C 294.04 60.49 295.64 60.75 297.11 61.44 C 297.32 61.45 297.74 61.47 297.95 61.48 C 299.34 62.15 300.83 62.70 302.12 63.58 L 302.87 63.52 C 304.27 64.11 305.67 64.74 306.98 65.53 C 307.23 65.53 307.73 65.53 307.98 65.53 C 309.72 66.90 311.93 67.32 313.90 68.26 C 316.77 69.16 319.46 70.54 321.98 72.18 C 322.48 72.50 323.47 73.14 323.97 73.46 C 324.23 73.45 324.76 73.44 325.03 73.43 C 327.10 74.75 329.17 76.20 331.62 76.74 L 331.55 77.34 C 332.81 77.66 334.26 77.82 334.92 79.12 C 335.95 79.69 337.00 80.23 338.05 80.76 C 338.46 81.00 339.29 81.48 339.70 81.72 L 339.75 82.70 C 340.08 82.60 340.75 82.39 341.08 82.29 C 342.17 83.70 343.58 84.78 345.09 85.70 C 351.70 89.28 356.92 94.79 363.09 98.97 C 364.29 100.34 365.58 101.67 367.18 102.58 C 367.59 103.11 368.43 104.15 368.84 104.67 C 369.23 104.65 370.01 104.61 370.39 104.59 C 370.38 105.06 370.34 106.01 370.32 106.48 L 371.63 106.41 L 371.49 107.72 C 371.97 107.68 372.93 107.62 373.41 107.58 C 373.39 108.06 373.34 109.02 373.32 109.50 L 374.58 109.31 L 374.56 110.16 C 378.60 112.79 381.06 117.06 384.46 120.38 C 385.34 121.29 386.20 122.26 386.74 123.43 L 387.16 123.51 C 389.86 127.08 392.82 130.47 395.64 133.96 L 395.49 134.93 C 397.24 136.76 398.88 138.73 400.22 140.89 C 401.08 143.45 403.51 145.02 404.50 147.52 C 405.81 150.46 407.50 153.19 409.17 155.94 C 409.70 157.80 410.96 159.28 411.82 160.99 C 413.40 163.17 414.14 165.81 415.57 168.08 L 415.44 168.89 C 416.45 170.50 417.32 172.21 417.68 174.10 C 418.21 175.10 418.81 176.05 419.45 176.99 C 419.47 177.25 419.51 177.77 419.53 178.03 C 420.58 179.89 421.07 181.98 421.78 183.99 C 422.65 185.93 423.02 188.04 423.81 190.02 C 424.34 191.29 424.55 192.65 424.80 194.00 C 425.71 196.27 426.24 198.67 427.33 200.88 C 427.51 202.39 427.65 203.91 427.77 205.43 L 428.35 205.46 C 428.46 207.59 428.83 209.69 429.29 211.77 C 429.50 212.87 429.71 213.99 430.29 214.97 C 430.50 216.64 430.67 218.31 430.89 219.98 C 431.97 225.70 432.58 231.59 432.74 237.44 L 433.43 237.40 C 433.41 247.12 433.73 256.85 433.44 266.57 L 432.73 266.57 C 432.49 270.69 433.12 274.99 431.76 278.96 C 431.60 280.34 431.47 281.74 431.32 283.13 C 430.46 285.68 430.69 288.44 429.85 290.99 C 429.62 292.36 429.44 293.75 429.30 295.13 C 428.27 297.69 427.42 300.32 427.28 303.10 C 426.35 305.33 425.74 307.68 425.26 310.05 C 424.72 311.73 424.19 313.41 423.58 315.07 C 423.55 315.28 423.49 315.71 423.46 315.92 C 421.55 319.02 421.96 323.21 419.28 325.89 C 419.36 326.25 419.50 326.98 419.58 327.34 L 418.28 327.69 L 418.47 328.91 C 417.37 331.00 416.50 333.20 416.20 335.55 L 415.24 335.47 L 415.81 336.58 C 415.44 336.61 414.68 336.66 414.31 336.69 L 414.75 338.05 C 413.69 339.17 412.71 340.40 412.37 341.95 C 410.10 345.16 411.13 349.51 411.51 353.14 C 412.03 351.48 412.96 350.12 414.30 349.08 C 414.73 346.96 416.74 345.72 417.63 343.83 C 418.71 341.28 420.67 339.30 422.32 337.12 C 422.88 334.17 425.90 332.72 426.66 329.86 C 427.50 328.61 428.09 327.24 428.62 325.85 C 429.52 324.19 430.07 322.31 431.52 321.01 C 431.50 320.75 431.45 320.22 431.42 319.95 C 431.74 319.44 432.38 318.41 432.70 317.90 C 433.25 316.96 433.82 316.04 434.42 315.13 C 435.12 313.46 435.70 311.74 436.28 310.03 C 437.59 307.39 438.87 304.74 439.73 301.91 C 440.53 300.33 441.19 298.68 441.71 296.98 C 442.82 294.43 443.27 291.67 444.21 289.06 C 444.47 287.63 444.85 286.24 445.45 284.92 C 445.47 284.72 445.52 284.31 445.55 284.10 C 446.06 282.73 446.44 281.32 446.77 279.90 C 447.62 278.26 447.69 276.40 447.78 274.59 L 448.33 274.58 C 448.46 272.73 448.66 270.89 449.20 269.12 C 449.85 265.75 450.47 262.37 450.83 258.95 C 452.18 254.85 451.21 250.40 451.93 246.18 C 453.18 239.20 452.29 232.04 452.57 224.99 C 452.99 218.76 450.94 212.72 451.42 206.49 L 450.68 206.48 C 450.90 202.71 449.95 199.06 449.34 195.37 L 448.67 195.61 C 448.62 193.87 448.58 192.12 448.52 190.38 C 448.30 190.42 447.86 190.50 447.65 190.54 C 447.60 188.83 447.54 187.12 447.49 185.40 L 446.68 185.43 C 446.59 183.92 446.50 182.41 446.41 180.91 C 445.77 179.30 445.19 177.68 444.55 176.08 C 444.47 175.19 444.40 174.30 444.34 173.42 L 443.28 173.26 L 443.58 172.15 C 442.77 170.74 442.40 169.18 442.29 167.57 L 441.69 167.56 C 441.30 165.49 440.71 163.46 440.29 161.40 L 439.29 161.30 C 439.40 160.90 439.61 160.09 439.72 159.69 C 439.37 159.58 438.68 159.35 438.34 159.24 L 438.85 157.62 L 437.82 157.59 C 437.69 156.25 437.22 155.06 436.40 154.05 C 436.47 153.69 436.61 152.98 436.68 152.62 L 435.26 152.36 C 435.32 152.02 435.42 151.34 435.47 151.01 C 434.41 148.53 432.86 146.22 432.28 143.57 L 431.20 143.42 C 431.28 143.06 431.43 142.33 431.50 141.97 C 430.12 140.28 429.10 138.35 428.24 136.36 L 427.18 136.45 C 427.28 136.09 427.48 135.36 427.58 134.99 C 426.33 133.95 425.73 132.49 425.25 131.00 C 423.35 128.41 422.42 125.07 419.81 123.04 C 419.63 122.57 419.27 121.63 419.09 121.16 C 418.45 120.44 417.84 119.71 417.25 118.97 C 415.80 116.89 414.75 114.43 412.60 112.96 C 412.62 112.59 412.66 111.85 412.68 111.47 L 411.36 111.63 L 411.69 110.34 L 410.74 110.52 C 410.53 109.20 409.77 108.38 408.47 108.07 C 408.53 107.78 408.65 107.21 408.70 106.92 C 404.51 103.67 402.14 98.53 397.93 95.31 C 395.44 92.97 393.56 89.99 390.60 88.19 L 390.50 87.39 L 389.31 87.64 L 389.68 86.25 L 388.33 86.68 L 388.54 85.92 C 387.94 85.19 387.40 84.42 386.91 83.62 L 385.88 83.63 C 384.64 82.23 383.15 81.10 381.50 80.22 L 381.72 79.29 L 380.44 79.61 L 380.64 78.40 L 379.80 78.61 C 378.63 77.24 377.20 76.13 375.64 75.25 L 375.50 74.80 C 373.72 73.47 371.93 72.16 370.07 70.95 C 368.13 69.32 365.93 68.05 363.65 66.97 C 363.57 66.59 363.39 65.84 363.31 65.46 L 361.62 65.70 L 361.29 64.29 C 360.95 64.38 360.29 64.56 359.95 64.66 C 358.21 62.32 355.47 61.18 353.04 59.76 C 350.64 58.66 348.43 57.22 346.08 56.04 C 345.01 55.70 343.94 55.37 342.89 55.02 C 342.22 53.78 341.11 53.19 339.56 53.23 C 339.56 53.04 339.55 52.66 339.54 52.47 C 336.48 51.92 333.97 49.88 330.92 49.27 C 328.97 48.24 326.75 47.77 324.94 46.48 L 324.03 46.40 C 320.93 44.62 317.43 43.88 314.08 42.74 C 311.69 42.34 309.39 41.54 307.11 40.74 C 306.39 40.60 305.67 40.46 304.96 40.31 C 303.63 39.82 302.25 39.48 300.88 39.15 C 299.18 38.40 297.31 38.42 295.49 38.35 L 295.45 37.63 C 293.95 37.55 292.47 37.48 290.99 37.37 C 288.82 36.36 286.37 36.44 284.12 35.75 C 281.77 35.48 279.39 35.32 277.09 34.76 C 270.04 34.76 263.11 33.23 256.06 33.63 C 251.73 33.89 247.27 33.07 243.05 34.23 M 215.95 57.70 C 212.34 58.54 208.64 58.50 204.98 58.78 C 203.08 59.59 200.99 59.56 198.97 59.75 C 197.72 60.51 196.25 60.59 194.84 60.77 C 193.22 61.26 191.55 61.56 189.87 61.77 C 186.94 62.57 183.82 62.80 181.10 64.23 C 179.73 64.50 178.18 64.39 177.09 65.41 C 176.38 65.49 175.66 65.56 174.95 65.64 C 173.66 66.19 172.38 66.74 171.10 67.30 C 168.01 68.04 165.00 69.05 162.06 70.24 C 159.63 71.16 157.26 72.24 155.05 73.62 C 154.70 73.53 154.02 73.35 153.67 73.26 C 153.59 73.52 153.42 74.04 153.34 74.31 C 151.43 74.71 149.61 75.44 148.03 76.59 C 147.70 76.55 147.04 76.48 146.71 76.45 L 146.45 77.70 C 146.10 77.65 145.41 77.54 145.06 77.49 C 142.06 79.84 138.46 81.29 135.25 83.36 C 133.48 84.36 131.74 85.41 130.05 86.54 C 129.71 86.48 129.02 86.37 128.68 86.31 L 128.64 87.60 L 127.41 87.44 L 127.43 88.36 C 124.25 89.57 121.28 91.87 119.07 94.43 C 118.78 94.41 118.19 94.37 117.90 94.35 C 116.51 96.07 114.60 97.16 112.60 98.03 C 112.49 98.48 112.27 99.39 112.15 99.84 C 107.32 101.41 104.66 106.28 100.42 108.87 L 100.50 109.71 C 100.12 109.67 99.37 109.59 99.00 109.55 C 97.80 111.41 96.14 113.00 95.36 115.11 C 93.23 117.79 91.16 120.53 89.24 123.36 L 88.79 123.55 C 87.18 127.31 85.18 131.10 82.26 134.04 L 82.58 134.92 C 81.46 135.56 81.35 136.86 80.97 137.97 C 79.78 138.97 79.26 140.46 78.67 141.86 C 77.63 145.24 74.69 147.81 74.36 151.46 L 73.51 151.49 C 73.50 152.28 73.47 153.85 73.46 154.63 L 72.27 154.37 L 72.80 155.56 L 71.64 155.51 C 71.59 156.16 71.48 157.45 71.43 158.09 C 70.78 159.43 70.16 160.78 69.52 162.13 L 69.46 162.89 C 68.86 163.85 68.55 164.94 68.24 166.02 C 67.56 167.44 67.35 169.00 67.18 170.55 L 66.26 170.66 C 66.40 171.09 66.67 171.93 66.81 172.35 L 65.74 172.43 C 65.49 175.01 64.62 177.45 63.71 179.87 C 63.55 181.26 63.43 182.69 62.71 183.95 C 62.56 184.94 62.43 185.94 62.31 186.95 C 61.77 188.27 61.23 189.58 60.68 190.89 C 60.57 192.98 60.44 195.06 60.27 197.14 C 59.36 199.45 59.32 201.95 59.26 204.41 L 58.54 204.45 C 58.51 206.60 58.40 208.74 58.17 210.88 C 57.45 212.84 57.51 214.95 57.44 217.01 C 57.13 226.68 57.25 236.36 57.74 246.02 C 59.06 249.55 57.98 253.44 59.16 256.99 C 59.37 259.02 59.51 261.07 59.69 263.11 C 61.05 267.99 62.06 272.98 63.27 277.89 C 63.56 280.05 63.85 282.27 65.09 284.13 C 65.60 286.76 66.38 289.34 67.21 291.89 C 68.58 295.53 69.36 299.41 71.30 302.83 C 71.44 304.04 71.93 305.09 72.74 305.97 C 72.71 306.21 72.64 306.69 72.61 306.94 C 72.89 307.52 73.45 308.70 73.72 309.29 L 74.74 309.69 C 74.62 310.01 74.39 310.65 74.27 310.96 C 75.16 312.23 75.84 313.63 76.65 314.97 C 76.59 315.24 76.49 315.78 76.43 316.05 C 76.79 316.55 77.49 317.55 77.84 318.05 C 78.63 319.29 79.25 320.62 79.77 322.00 C 81.34 325.19 84.11 327.79 84.72 331.39 L 85.66 331.40 L 85.42 332.50 C 85.65 332.54 86.10 332.64 86.33 332.69 C 86.79 333.91 87.25 335.14 87.70 336.37 L 88.28 336.56 C 89.04 338.20 90.17 339.62 91.51 340.83 L 91.38 341.63 C 91.58 341.64 91.98 341.65 92.18 341.66 C 93.04 344.15 94.60 346.33 96.69 347.94 C 96.62 348.20 96.49 348.72 96.43 348.98 C 97.55 350.19 98.64 351.43 99.69 352.70 C 112.09 353.15 124.54 352.10 136.90 353.27 C 148.27 353.36 159.67 351.91 171.03 353.27 C 181.02 352.43 191.07 352.82 201.10 352.79 C 207.00 353.68 212.98 353.16 218.92 353.29 C 224.04 353.48 229.14 352.08 234.23 353.22 C 251.84 353.46 269.45 353.23 287.06 353.27 C 296.98 352.38 306.98 352.78 316.93 352.89 C 323.74 353.85 330.69 352.98 337.56 353.31 C 337.72 350.88 337.75 348.44 337.73 346.00 C 337.62 308.27 337.91 270.54 337.60 232.82 C 332.05 227.80 327.24 221.96 321.46 217.21 C 311.57 207.56 301.92 197.66 292.09 187.96 C 279.50 174.34 265.87 161.71 253.07 148.29 C 252.71 148.31 252.00 148.35 251.64 148.37 C 238.93 161.73 225.48 174.35 212.60 187.54 C 197.29 202.89 181.98 218.23 166.67 233.59 C 166.78 253.93 166.63 274.27 166.77 294.61 C 157.27 294.65 147.77 294.65 138.27 294.61 C 138.36 270.28 138.34 245.95 138.31 221.62 C 176.17 183.72 214.17 145.96 252.08 108.11 C 290.19 145.72 327.69 183.94 365.81 221.52 C 365.94 274.75 365.83 327.98 365.96 381.21 C 293.63 381.24 221.30 381.21 148.98 381.22 C 141.43 381.25 133.89 381.10 126.35 381.55 C 131.88 384.15 135.78 389.09 141.09 392.05 C 141.99 393.24 143.43 393.58 144.78 394.01 C 148.22 397.60 152.83 399.77 156.87 402.61 C 157.24 402.58 157.99 402.52 158.37 402.49 L 158.43 403.60 L 159.56 403.50 L 159.70 404.57 C 160.13 404.48 161.00 404.32 161.43 404.23 L 161.68 405.65 C 162.03 405.59 162.73 405.47 163.08 405.40 C 165.38 407.02 167.88 408.32 170.31 409.74 C 172.48 410.88 174.79 411.72 177.05 412.68 C 178.17 413.26 179.37 413.56 180.66 413.58 L 180.67 414.27 C 183.02 414.86 185.02 416.52 187.51 416.58 L 187.59 417.32 C 189.22 417.77 190.86 418.27 192.51 418.67 L 192.49 419.31 C 194.86 419.42 197.15 420.03 199.40 420.76 L 199.49 421.42 C 200.82 421.45 202.14 421.49 203.48 421.53 L 203.43 422.52 C 204.09 422.55 205.41 422.61 206.07 422.64 C 207.35 423.12 208.63 423.63 209.87 424.24 C 211.73 424.41 213.59 424.55 215.46 424.65 L 215.49 425.38 C 219.01 425.53 222.45 426.36 225.85 427.24 C 228.20 427.46 230.58 427.62 232.88 428.23 C 236.26 428.33 239.64 428.57 242.96 429.25 C 254.39 429.97 265.84 429.44 277.21 428.34 C 279.92 427.61 282.74 427.42 285.53 427.37 L 285.63 426.80 C 293.24 425.99 300.69 424.13 308.08 422.20 C 309.09 421.87 310.11 421.57 311.14 421.28 C 313.43 420.52 315.71 419.69 318.10 419.29 C 319.39 418.80 320.68 418.28 321.95 417.74 C 324.60 416.74 327.43 416.12 329.85 414.59 C 330.92 414.14 332.00 413.72 333.09 413.34 C 334.35 412.76 335.61 412.17 336.89 411.62 C 338.60 410.83 340.25 409.88 342.06 409.31 C 344.79 407.89 347.35 406.06 350.33 405.17 L 350.48 404.60 C 353.51 403.47 356.22 401.42 358.89 399.62 C 362.60 398.44 364.88 395.12 367.59 392.56 C 370.04 389.95 372.81 387.68 375.33 385.13 C 377.17 382.62 379.44 380.51 381.55 378.24 C 382.97 375.71 382.44 372.70 382.56 369.95 C 382.56 318.52 382.54 267.08 382.61 215.65 C 340.90 174.23 299.40 132.59 257.78 91.07 C 255.96 89.22 254.25 87.20 252.06 85.77 C 249.59 87.69 247.52 90.06 245.27 92.22 C 204.06 133.41 162.89 174.65 121.62 215.78 C 121.69 247.21 121.64 278.65 121.68 310.08 C 188.55 310.11 255.42 310.06 322.29 310.10 C 322.23 319.50 322.42 328.91 322.19 338.30 C 245.91 338.30 169.62 338.60 93.34 338.34 C 93.16 293.53 93.30 248.71 93.32 203.90 C 108.19 189.56 122.24 174.39 137.27 160.22 C 162.44 134.41 188.21 109.18 213.63 83.61 C 223.11 75.37 231.34 65.80 240.62 57.35 C 232.40 57.29 224.15 57.04 215.95 57.70 M 266.83 60.48 C 274.46 67.04 281.27 74.53 288.19 81.83 C 309.26 102.67 330.08 123.80 351.22 144.56 C 359.37 153.47 368.07 161.91 376.94 170.10 C 388.21 181.42 399.54 192.71 410.80 204.02 C 411.23 244.68 410.82 285.36 411.06 326.03 C 411.15 328.05 411.42 330.06 411.66 332.08 C 412.04 329.19 412.80 326.38 413.72 323.62 C 413.86 323.56 414.14 323.43 414.28 323.36 C 414.53 322.12 415.10 320.98 415.75 319.90 C 416.34 318.33 416.80 316.72 417.33 315.14 C 418.15 312.76 418.53 310.25 419.44 307.90 C 419.49 307.70 419.57 307.29 419.61 307.09 C 420.21 305.74 420.55 304.31 420.80 302.86 C 421.27 301.62 421.76 300.39 422.26 299.16 C 422.54 297.76 422.84 296.38 423.19 295.01 C 423.39 293.02 423.66 291.04 424.25 289.13 C 424.44 287.74 424.63 286.36 424.85 284.99 C 426.14 279.96 426.71 274.74 426.68 269.55 L 427.33 269.46 C 427.77 257.82 427.63 246.17 427.35 234.52 C 427.15 234.51 426.74 234.48 426.53 234.47 C 426.53 231.18 426.38 227.89 426.27 224.60 L 425.51 224.54 C 425.48 222.68 425.41 220.82 425.30 218.97 C 424.38 217.32 424.27 215.42 424.20 213.58 L 423.44 213.65 C 423.39 212.28 423.36 210.91 423.33 209.55 L 422.64 209.50 C 422.49 207.69 422.25 205.89 421.80 204.14 C 421.20 200.81 419.52 197.74 419.31 194.33 L 418.40 194.56 C 418.39 193.56 418.36 191.56 418.34 190.56 C 418.07 190.50 417.54 190.39 417.27 190.34 L 417.34 189.13 C 415.93 186.89 416.12 183.99 414.38 181.92 C 414.46 181.59 414.62 180.94 414.70 180.61 L 413.42 180.35 C 413.47 179.91 413.57 179.03 413.62 178.59 L 412.37 178.32 C 412.49 177.89 412.74 177.04 412.87 176.61 L 411.87 176.52 C 411.63 175.31 411.22 174.17 410.64 173.11 C 409.44 169.97 408.48 166.59 406.29 163.97 L 406.74 162.73 C 406.37 162.63 405.63 162.44 405.26 162.34 C 405.34 161.98 405.49 161.28 405.56 160.92 C 404.10 159.29 402.30 157.72 402.26 155.34 L 401.76 155.53 C 401.18 153.54 400.10 151.77 398.82 150.16 C 398.29 148.58 397.33 147.21 396.34 145.89 C 393.40 142.46 391.58 138.20 388.30 135.05 L 388.41 134.12 C 387.01 132.96 385.75 131.64 384.63 130.22 C 379.12 122.89 372.79 116.06 365.78 110.19 C 365.37 109.16 364.63 108.46 363.57 108.12 C 363.55 107.83 363.51 107.25 363.49 106.96 C 359.35 105.02 356.84 100.59 352.56 99.18 C 352.52 98.78 352.45 97.98 352.41 97.58 C 351.95 97.58 351.01 97.57 350.54 97.57 L 350.68 96.40 L 349.55 96.55 L 349.51 95.82 C 349.12 95.47 348.33 94.76 347.94 94.41 L 346.61 94.78 L 346.65 93.39 L 345.44 93.59 L 345.34 92.69 C 339.86 90.25 335.46 85.70 329.96 83.15 C 327.98 81.87 325.72 81.05 323.92 79.51 L 323.00 79.60 C 322.49 79.26 321.46 78.58 320.95 78.24 C 319.61 77.40 318.26 76.30 316.56 76.51 L 316.37 75.64 C 315.53 75.28 314.70 74.91 313.87 74.54 L 313.12 74.55 C 311.79 73.87 310.44 73.22 309.06 72.64 C 307.89 72.40 306.81 71.93 305.84 71.24 C 304.82 70.88 303.78 70.58 302.75 70.28 C 301.25 69.35 299.59 68.75 297.93 68.20 C 296.93 67.81 295.90 67.48 294.88 67.16 C 292.60 66.47 290.33 65.73 287.99 65.25 C 282.84 63.83 277.83 61.49 272.42 61.37 L 272.41 60.64 C 270.54 60.60 268.69 60.56 266.83 60.48 M 44.54 129.66 C 43.82 130.95 42.85 132.06 41.71 133.00 C 41.63 133.65 41.48 134.96 41.41 135.62 L 40.31 135.29 L 40.65 136.50 L 39.66 136.69 C 39.42 138.37 38.38 139.71 37.39 141.03 L 37.53 141.89 C 36.39 143.19 35.55 144.70 34.46 146.04 C 34.50 146.28 34.56 146.77 34.59 147.02 C 31.90 149.82 31.04 153.76 29.16 157.08 C 28.56 158.47 28.31 159.96 28.09 161.45 C 27.76 161.44 27.10 161.43 26.76 161.43 C 26.31 163.39 25.76 165.37 24.51 166.99 C 24.55 167.25 24.62 167.76 24.65 168.02 C 23.72 168.81 23.25 169.85 23.23 171.13 C 22.74 172.42 22.20 173.69 21.59 174.93 C 21.58 175.24 21.57 175.85 21.56 176.16 C 19.93 179.28 19.03 182.74 17.61 185.97 C 17.54 186.50 17.40 187.57 17.33 188.11 C 16.75 189.75 16.20 191.39 15.58 193.02 C 15.47 194.37 15.37 195.71 15.27 197.07 C 14.70 198.34 14.15 199.62 13.58 200.90 C 13.54 202.16 13.49 203.42 13.46 204.68 L 12.67 204.43 C 12.55 206.28 12.38 208.14 11.78 209.91 C 11.65 211.64 11.47 213.38 10.84 215.02 C 10.54 217.62 10.46 220.25 9.74 222.78 C 8.59 230.47 8.23 238.23 8.29 245.99 C 8.45 250.36 7.32 254.67 7.88 259.04 C 8.98 263.94 7.79 269.08 9.21 273.95 C 9.54 276.62 9.31 279.40 10.24 281.98 C 10.46 284.53 10.57 287.10 10.53 289.66 L 11.30 289.54 C 11.42 291.18 11.56 292.83 11.66 294.48 L 12.27 294.55 C 12.37 296.06 12.44 297.62 13.14 299.01 C 13.34 300.34 13.54 301.68 13.74 303.02 C 14.31 304.45 14.55 305.96 14.70 307.49 L 15.19 307.53 C 15.43 310.44 16.18 313.28 17.22 316.00 C 18.09 317.58 18.57 319.32 18.73 321.12 C 19.28 322.37 19.76 323.65 20.18 324.96 C 20.52 326.00 20.89 327.03 21.28 328.06 C 21.34 328.70 21.47 329.98 21.53 330.63 L 22.29 330.38 C 22.53 331.60 22.80 332.81 23.10 334.03 C 24.12 335.98 25.10 337.96 25.84 340.04 C 26.12 340.71 26.40 341.39 26.69 342.06 C 27.24 343.01 27.78 343.97 28.31 344.94 C 29.27 347.80 30.87 350.41 31.71 353.32 L 32.82 353.60 C 32.71 353.95 32.49 354.67 32.39 355.03 C 33.14 355.67 33.90 356.32 34.66 356.97 L 34.23 358.01 C 35.04 359.01 35.86 359.99 36.68 360.99 L 36.48 361.98 C 38.63 363.48 38.30 366.66 40.64 368.01 C 40.58 368.26 40.48 368.76 40.43 369.02 C 41.47 370.03 42.37 371.19 42.73 372.63 L 43.77 372.53 C 43.69 372.89 43.51 373.61 43.42 373.97 C 44.83 375.52 46.20 377.12 47.44 378.82 C 47.67 379.77 48.08 380.65 48.65 381.45 C 49.46 382.27 50.24 383.11 51.02 383.96 C 53.23 387.72 55.95 391.31 59.37 394.06 C 59.37 394.41 59.35 395.11 59.35 395.46 L 60.25 395.54 C 60.54 396.57 61.15 397.35 62.08 397.89 C 65.18 402.63 69.39 406.51 73.47 410.41 C 77.48 414.20 81.09 418.44 85.47 421.82 L 85.52 422.19 C 87.20 423.36 88.83 424.60 90.51 425.79 L 90.56 426.18 C 95.81 429.92 100.52 434.43 106.11 437.67 C 107.37 438.54 108.61 439.44 109.86 440.33 C 110.90 440.88 111.94 441.44 112.97 442.02 C 114.09 443.27 115.89 443.66 116.85 445.09 C 117.93 445.64 119.01 446.19 120.11 446.72 C 122.04 447.80 124.02 448.79 125.99 449.82 C 127.55 450.94 129.52 451.31 130.92 452.71 C 131.29 452.59 132.05 452.35 132.42 452.23 L 132.29 453.28 C 134.30 454.21 136.29 455.20 138.42 455.83 L 138.48 456.54 C 139.70 456.83 140.91 457.16 142.13 457.49 C 143.41 458.25 144.73 458.94 146.05 459.64 C 146.29 459.61 146.77 459.55 147.02 459.51 C 148.63 460.43 150.32 461.26 152.12 461.77 C 153.80 462.72 155.62 463.39 157.54 463.64 L 157.51 464.66 C 157.92 464.63 158.74 464.58 159.15 464.55 C 160.78 465.08 162.41 465.64 163.99 466.33 C 164.88 466.39 166.65 466.52 167.54 466.59 L 167.47 467.43 C 169.36 467.74 171.22 468.19 173.06 468.70 C 174.33 469.40 175.76 469.57 177.19 469.70 C 178.16 470.09 179.14 470.48 180.12 470.86 C 182.39 471.28 184.71 471.50 186.92 472.19 C 188.28 472.47 189.64 472.76 190.98 473.13 C 192.98 473.38 195.13 473.24 196.97 474.22 C 198.37 474.39 199.78 474.55 201.19 474.70 C 204.76 475.55 208.44 475.34 212.06 475.82 C 215.64 476.64 219.35 476.41 223.00 476.61 C 232.99 476.71 243.01 476.96 252.98 476.12 C 259.93 475.05 267.17 475.04 273.92 472.74 C 275.93 472.52 277.94 472.36 279.97 472.22 C 281.25 471.69 282.55 471.19 283.85 470.71 C 285.23 470.48 286.59 470.21 287.95 469.88 C 289.30 469.52 290.65 469.17 292.00 468.80 C 292.69 468.64 293.38 468.48 294.08 468.34 C 295.40 467.92 296.73 467.56 298.07 467.23 C 301.45 466.28 304.63 464.72 308.04 463.84 C 309.10 463.49 310.11 463.02 311.06 462.42 L 311.87 462.41 C 314.98 461.40 318.11 460.42 320.93 458.74 C 324.43 457.50 327.57 455.42 331.12 454.30 C 332.34 453.50 333.62 452.76 335.02 452.29 C 336.62 450.51 339.10 450.11 341.09 448.90 C 343.31 447.43 345.71 446.27 347.95 444.84 C 350.32 443.71 352.47 442.20 355.02 441.42 C 350.50 440.38 346.85 443.34 342.87 444.75 C 341.62 445.56 340.26 446.14 338.89 446.67 C 337.27 447.20 335.66 447.73 334.07 448.31 C 332.05 448.98 330.04 449.64 328.00 450.24 C 327.28 450.61 326.56 451.00 325.85 451.40 L 325.04 451.31 C 324.03 452.86 321.99 452.26 320.45 452.55 L 320.48 453.46 C 318.98 453.52 317.48 453.61 316.00 453.74 C 313.99 454.57 311.92 455.19 309.82 455.73 C 307.89 456.20 305.94 456.59 304.02 457.10 C 302.32 457.39 300.64 457.70 298.97 458.11 C 297.28 458.38 295.58 458.63 293.97 459.22 C 291.67 459.52 289.34 459.56 287.03 459.75 C 284.95 460.54 282.71 460.57 280.51 460.64 L 280.47 461.31 C 275.35 461.71 270.13 461.13 265.08 462.17 C 257.90 462.73 250.69 462.18 243.50 462.39 L 243.46 461.66 C 239.37 461.51 235.19 461.85 231.20 460.74 C 226.39 460.54 221.57 460.33 216.87 459.20 C 214.68 458.45 212.32 458.51 210.14 457.73 C 206.85 457.02 203.53 456.49 200.22 455.88 C 198.09 455.41 196.00 454.78 193.90 454.19 C 191.80 453.45 189.66 452.75 187.45 452.43 L 187.45 451.68 C 185.97 451.50 184.44 451.52 183.07 450.87 C 179.83 449.30 176.07 449.18 172.95 447.27 C 171.90 446.82 170.82 446.41 169.74 446.05 C 167.81 445.21 165.88 444.37 163.97 443.49 C 163.73 443.49 163.26 443.48 163.02 443.48 C 162.53 443.16 161.57 442.51 161.08 442.18 C 159.73 441.64 158.38 441.14 157.02 440.64 C 154.83 439.67 152.66 438.54 150.90 436.90 C 150.28 436.80 149.06 436.62 148.45 436.53 L 148.48 435.57 C 147.87 435.49 146.65 435.33 146.04 435.25 C 144.85 434.04 143.32 433.25 141.95 432.28 C 141.63 432.39 140.97 432.59 140.65 432.69 C 140.57 432.41 140.41 431.85 140.33 431.57 C 138.37 431.21 136.85 429.76 135.06 428.99 C 134.13 428.00 133.03 427.21 131.97 426.39 L 130.68 426.74 L 130.59 425.77 C 130.19 425.44 129.39 424.78 128.99 424.45 L 127.57 424.74 L 127.69 423.34 L 126.47 423.55 L 126.36 422.65 C 123.86 422.16 122.27 420.01 120.17 418.78 C 116.84 416.68 113.82 414.14 111.09 411.31 C 110.84 411.35 110.34 411.43 110.09 411.47 C 109.15 410.09 107.95 408.95 106.51 408.13 L 106.38 407.71 C 104.03 406.73 102.67 404.42 100.51 403.14 L 100.56 402.63 L 99.58 402.33 L 99.37 401.27 L 98.37 401.66 L 98.60 400.35 L 97.58 400.74 L 97.43 399.64 L 96.36 399.47 L 96.42 398.87 C 93.56 396.98 91.71 393.98 89.10 391.80 C 86.76 389.87 84.60 387.71 82.95 385.16 C 80.05 381.62 76.85 378.30 74.20 374.57 L 73.75 374.42 C 73.42 373.38 72.77 372.61 71.79 372.12 C 71.00 370.00 69.30 368.48 67.93 366.76 C 67.50 366.13 67.06 365.52 66.61 364.91 L 66.70 364.01 C 66.34 363.60 65.63 362.77 65.27 362.35 L 64.46 362.40 C 64.47 361.92 64.50 360.95 64.51 360.47 C 64.13 360.46 63.36 360.43 62.98 360.42 C 62.59 358.83 61.88 357.37 61.05 355.98 C 58.90 354.18 58.41 350.75 55.51 349.87 C 55.93 349.73 56.75 349.43 57.17 349.29 C 55.36 347.68 54.49 345.38 53.35 343.31 L 52.49 343.48 C 52.47 342.74 52.45 341.26 52.43 340.52 L 51.56 340.70 C 51.47 339.19 50.63 338.04 49.48 337.13 L 49.64 336.34 L 48.51 336.43 C 48.49 335.43 48.47 334.43 48.45 333.43 L 47.12 333.32 L 47.55 332.09 C 47.23 331.48 46.61 330.27 46.30 329.66 L 45.26 329.32 C 45.43 328.89 45.78 328.02 45.96 327.59 C 45.66 327.58 45.05 327.55 44.75 327.53 C 44.61 326.89 44.34 325.60 44.21 324.96 L 43.25 324.07 C 43.35 323.71 43.53 322.99 43.63 322.63 L 42.29 322.37 C 42.35 322.01 42.46 321.29 42.52 320.93 C 41.16 318.74 40.35 316.31 39.31 313.97 C 38.18 310.90 37.03 307.75 36.62 304.49 L 35.63 304.60 C 35.56 303.23 35.48 301.87 35.41 300.51 L 34.60 300.53 C 34.13 298.50 33.57 296.49 33.18 294.46 L 32.40 294.26 C 32.49 293.86 32.69 293.04 32.79 292.64 C 32.52 292.60 31.97 292.53 31.70 292.49 C 31.63 290.81 31.55 289.14 31.46 287.47 L 30.61 287.54 C 30.65 285.64 30.79 283.63 29.68 281.98 C 29.56 280.65 29.43 279.32 29.30 278.00 C 28.27 276.51 28.39 274.67 28.22 272.97 C 26.63 268.77 26.98 264.20 25.97 259.88 C 25.60 255.59 25.38 251.30 24.63 247.06 C 24.44 234.56 24.27 222.06 24.73 209.57 L 25.41 209.59 C 25.50 207.09 25.59 204.55 26.29 202.12 C 26.52 199.79 26.46 197.39 27.27 195.16 C 27.64 191.75 28.18 188.33 29.25 185.06 C 29.42 183.55 29.56 182.04 29.68 180.54 L 30.36 180.52 C 30.46 179.02 30.60 177.51 30.77 176.02 C 31.30 174.69 31.56 173.29 31.77 171.89 C 32.28 170.63 32.80 169.37 33.32 168.11 C 33.58 165.69 34.50 163.44 35.26 161.15 C 35.52 160.12 35.80 159.10 36.14 158.10 C 36.70 156.69 37.24 155.28 37.71 153.84 C 38.21 152.56 38.70 151.28 39.18 149.99 C 39.49 148.97 39.84 147.96 40.22 146.96 C 41.05 144.94 41.85 142.90 42.74 140.90 C 44.47 138.53 44.80 135.49 46.41 133.06 C 46.92 131.94 47.37 130.80 47.71 129.62 L 48.42 129.36 C 48.82 128.23 49.23 127.10 49.65 125.98 C 51.57 123.20 53.64 120.14 52.88 116.49 C 50.56 121.17 47.16 125.17 44.54 129.66 Z" />
</g>
</svg>
