<svg height="298" viewBox="0 0 1000 298" width="1000" xmlns="http://www.w3.org/2000/svg"><g fill="none" fill-rule="evenodd"><g transform="translate(0 .999947)"><path d="m969.320636 13.9407048v6.3813077h4.172394c3.485175 0 8.2957.5890438 8.2957-2.8961319 0-3.4851758-2.748871-3.4851758-5.841351-3.4851758zm15.60966 22.040055h-4.22148l-6.626743-11.8790497h-4.908698v11.8790497h-3.73061v-25.7215786h10.848223c4.663263 0 8.884743 1.3744355 8.884743 6.8230905.142866 1.880279-.528125 3.7314467-1.842605 5.0834831-1.314479 1.3520364-3.146015 2.0748963-5.029572 1.9850423zm-10.455527-32.20112344c-10.600006 0-19.19301 8.59306644-19.19301 19.19307324 0 10.6000067 8.593004 19.19301 19.19301 19.19301 10.600007 0 19.193073-8.5930033 19.193073-19.19301.013016-5.0943011-2.004898-9.9837212-5.607125-13.58594791-3.602227-3.6022267-8.491647-5.62014129-13.585948-5.60712533m0 42.06760684c-12.660323-.0271389-22.901548-10.312349-22.874482-22.9726723.027173-12.6603234 10.312368-22.90156402 22.972691-22.87451745 12.660323.02715388 22.90158 10.31233265 22.874714 22.97265615.02627 6.091839-2.388729 11.9404027-6.705565 16.2387903-4.316835 4.2983875-10.175688 6.6883173-16.267358 6.6357433m-277.832319 46.2399372v-20.9601414h-54.682898v95.179658h24.543491v-37.355193h27.194188v-20.960141h-26.99784v-15.9041826zm53.161202-20.9601414h-24.543491v95.179658h54.437463v-20.960141h-29.697624zm100.235618 20.8128805c-14.250767-.1795559-26.111947 10.9024225-26.899667 25.1325345 0 14.910496 12.087345 26.99784 26.997841 26.99784 14.910495 0 26.99784-12.087344 26.99784-26.99784-.78772-14.230112-12.6489-25.3120904-26.899666-25.1325345m0-24.0035343c27.390536 0 52.621244 20.2238366 52.621244 49.0869818-.868821 28.449766-24.182759 51.062593-52.645788 51.062593s-51.776967-22.612827-52.645788-51.062593c0-28.7649712 25.279795-49.0869818 52.670332-49.0869818m147.260946 5.448655c-7.118912-3.1413414-14.799434-4.81102-22.580012-4.9086982-13.638067.1472623-26.662914 5.6889996-36.226193 15.4133124-9.030659 9.3477765-14.050943 21.8544506-13.98979 34.8517576-.45026 13.630668 5.114274 26.770148 15.216965 35.931671 9.736726 8.984281 22.486962 13.993302 35.735323 14.038877 7.469134-.307467 14.842114-1.798632 21.843707-4.417829v-29.452189c-5.367922 6.199798-13.152192 9.778773-21.352837 9.817396-6.934666.422941-13.723699-2.112959-18.682922-6.978612-4.959223-4.865652-7.623966-11.605156-7.333179-18.546618-.36799-6.926149 2.153976-13.694558 6.964481-18.691156 4.810505-4.9965978 11.478366-7.7735216 18.413489-7.6685538 8.478982-.1435491 16.525673 3.734155 21.696446 10.4555268z" fill="#000" fill-rule="nonzero"/><path d="m562.831337 91.9399195c14.250767-.1795559 26.111947 10.9024225 26.899666 25.1325345 0 14.910496-12.087344 26.99784-26.99784 26.99784-14.910495 0-26.99784-12.087344-26.99784-26.99784.787719-14.230112 12.6489-25.3120904 26.899666-25.1325345m0-24.0035343c-27.390536 0-52.621245 20.2238366-52.621245 49.0869818 0 29.061911 23.559334 52.621245 52.621245 52.621245s52.621245-23.559334 52.621245-52.621245c0-28.7649712-25.230709-49.0869818-52.621245-49.0869818m-525.2307086 24.1507952h16.345965v-20.9601414h-52.17946197v20.9601414h16.34596507v74.2195166h19.6347928zm62.3404673 15.7569216v-36.717063h-24.5434911v95.130571h24.5434911v-38.975063h35.7353233v38.975063h24.543491v-95.130571h-24.543491v36.717063zm145.7392503-15.7569216v-20.9601414h-53.995681v95.179658h53.995681v-20.960141h-29.45219v-16.395052h27.930493v-20.960141h-27.930493v-15.9041826zm54.682898-2.0616532h2.405262c8.050265 0 17.131357 1.5216964 17.131357 11.8790498 0 10.357353-9.081092 11.87905-17.131357 11.87905h-2.405262zm24.543491 37.2570198c12.620825-2.536824 21.388838-14.059297 20.469271-26.899667 0-20.3220102-14.284311-29.4521889-33.084626-29.4521889h-36.962497v95.3760059h24.543491v-36.618888h.245435l23.365403 36.618888h30.777538zm45.69998 39.269585h24.543491l7.952091-54.781072 21.79462 54.781072h9.817397l22.874534-54.781072h.245434l6.921265 54.781072h24.543491l-14.382486-95.1796581h-24.543491l-20.469271 50.8541131-19.340271-50.8541131h-24.543491z" fill="#cd171a" fill-rule="nonzero"/><path d="m0 195.500053h1000" stroke="#000" stroke-linecap="square" stroke-width="3"/></g><g fill="#000" fill-rule="nonzero" transform="translate(2.678 215.1)"><path d="m6.384 5.396h-6.384v57.304h6.384z"/><path d="m24.590361 26.98h-6.08v35.72h6.08v-16.948c0-6.384.532-14.136 8.892-14.136 7.068 0 7.524 5.168 7.524 10.944v20.14h6.08v-21.204c0-8.36-2.28-15.504-12.16-15.504-4.408 0-7.676 1.9-10.184 5.32h-.152z"/><path d="m65.520722 32.604h6.384v-5.624h-6.384v-12.844h-6.08v12.844h-3.724v5.624h3.724v30.096h6.08z"/><path d="m108.959083 46.132c.608-10.64-5.472-20.14-16.948-20.14-11.172 0-17.328 8.74-17.328 19.304 0 10.26 6.84 18.392 17.48 18.392 7.296 0 13.072-3.648 16.492-10.032l-5.168-2.964c-2.356 4.256-5.7 7.372-10.868 7.372-6.916 0-11.628-5.32-11.704-11.932zm-27.74-5.168c.76-5.168 5.624-9.348 10.868-9.348 5.32 0 9.652 4.18 10.488 9.348z"/><path d="m123.745444 0h-6.08v62.7h6.08z"/><path d="m141.495805 0h-6.08v62.7h6.08z"/><path d="m160.538166 26.98h-6.08v35.72h6.08zm-3.04-17.784c-2.356 0-4.332 1.976-4.332 4.332 0 2.432 1.976 4.332 4.332 4.332s4.332-1.9 4.332-4.332c0-2.356-1.976-4.332-4.332-4.332z"/><path d="m188.168527 31.616c7.524 0 12.008 5.776 12.008 12.92 0 7.22-4.104 13.528-11.932 13.528-7.6 0-11.704-6.612-11.704-13.604 0-6.688 4.56-12.844 11.628-12.844zm17.784-4.636h-6.08v5.092h-.152c-2.888-3.876-7.22-6.08-12.16-6.08-10.564 0-17.252 8.968-17.252 19 0 9.956 6.612 18.696 17.024 18.696 4.788 0 9.5-2.204 12.388-5.928h.152v4.256c0 8.056-2.052 14.972-11.476 14.972-6.536 0-11.324-4.18-11.4-10.792h-6.08c.228 10.108 7.6 16.416 17.556 16.416 5.32 0 10.488-2.052 13.832-6.308 3.648-4.712 3.648-9.652 3.648-15.352z"/><path d="m249.390888 46.132c.608-10.64-5.472-20.14-16.948-20.14-11.172 0-17.328 8.74-17.328 19.304 0 10.26 6.84 18.392 17.48 18.392 7.296 0 13.072-3.648 16.492-10.032l-5.168-2.964c-2.356 4.256-5.7 7.372-10.868 7.372-6.916 0-11.628-5.32-11.704-11.932zm-27.74-5.168c.76-5.168 5.624-9.348 10.868-9.348 5.32 0 9.652 4.18 10.488 9.348z"/><path d="m264.329249 26.98h-6.08v35.72h6.08v-16.948c0-6.384.532-14.136 8.892-14.136 7.068 0 7.524 5.168 7.524 10.944v20.14h6.08v-21.204c0-8.36-2.28-15.504-12.16-15.504-4.408 0-7.676 1.9-10.184 5.32h-.152z"/><path d="m305.25961 32.604h6.384v-5.624h-6.384v-12.844h-6.08v12.844h-3.724v5.624h3.724v30.096h6.08z"/><path d="m395.869054 5.396h-6.384v57.304h6.384z"/><path d="m414.075415 26.98h-6.08v35.72h6.08v-16.948c0-6.384.532-14.136 8.892-14.136 7.068 0 7.524 5.168 7.524 10.944v20.14h6.08v-21.204c0-8.36-2.28-15.504-12.16-15.504-4.408 0-7.676 1.9-10.184 5.32h-.152z"/><path d="m468.153776 32.604c-1.596-3.724-5.396-6.612-9.5-6.612-5.776 0-10.64 4.104-10.64 10.108 0 11.248 16.112 8.512 16.112 16.492 0 3.268-2.508 5.472-5.776 5.472-4.028 0-5.776-2.356-7.296-5.7l-5.396 2.28c1.9 5.624 6.612 9.044 12.616 9.044 6.612 0 12.084-4.864 12.084-11.628 0-6.004-4.104-8.512-8.284-10.26s-8.284-2.964-8.284-6.232c0-2.28 2.28-3.952 4.408-3.952 2.204 0 4.028 1.748 4.864 3.648z"/><path d="m485.068137 26.98h-6.08v20.596c0 9.5 3.572 16.112 14.136 16.112s14.136-6.612 14.136-16.112v-20.596h-6.08v19.912c0 6.004-.684 11.172-8.056 11.172s-8.056-5.168-8.056-11.172z"/><path d="m524.782498 0h-6.08v62.7h6.08z"/><path d="m551.424859 31.616c7.524 0 12.008 5.776 12.008 12.92 0 7.22-4.104 13.528-11.932 13.528-7.6 0-11.704-6.612-11.704-13.604 0-6.688 4.56-12.844 11.628-12.844zm17.784-4.636h-6.08v5.092h-.152c-2.964-3.8-7.372-6.08-12.236-6.08-10.716 0-17.176 8.74-17.176 18.924 0 9.88 6.612 18.772 17.1 18.772 5.016 0 9.196-1.976 12.312-5.928h.152v4.94h6.08z"/><path d="m587.33922 32.604h6.384v-5.624h-6.384v-12.844h-6.08v12.844h-3.724v5.624h3.724v30.096h6.08z"/><path d="m606.913581 26.98h-6.08v35.72h6.08zm-3.04-17.784c-2.356 0-4.332 1.976-4.332 4.332 0 2.432 1.976 4.332 4.332 4.332s4.332-1.9 4.332-4.332c0-2.356-1.976-4.332-4.332-4.332z"/><path d="m635.683942 63.688c10.412 0 18.772-8.284 18.772-18.772s-8.284-18.924-18.772-18.924-18.772 8.436-18.772 18.924 8.36 18.772 18.772 18.772zm0-32.072c7.524 0 12.692 6.004 12.692 13.224 0 7.296-5.168 13.224-12.692 13.224s-12.692-5.928-12.692-13.224c0-7.22 5.168-13.224 12.692-13.224z"/><path d="m669.394303 26.98h-6.08v35.72h6.08v-16.948c0-6.384.532-14.136 8.892-14.136 7.068 0 7.524 5.168 7.524 10.944v20.14h6.08v-21.204c0-8.36-2.28-15.504-12.16-15.504-4.408 0-7.676 1.9-10.184 5.32h-.152z"/><path d="m806.743747 13.3c-3.04-5.624-8.436-8.892-14.82-8.892-8.512 0-16.036 5.7-16.036 14.592 0 8.208 5.776 11.628 12.464 14.668l3.496 1.52c5.32 2.432 10.564 4.712 10.564 11.4 0 6.46-5.624 11.172-11.78 11.172s-10.64-4.788-11.476-10.64l-6.232 1.748c1.824 8.892 8.664 14.82 17.86 14.82 9.956 0 18.012-7.676 18.012-17.708 0-9.12-6.308-12.844-13.756-16.112l-3.8-1.672c-3.876-1.748-8.968-4.028-8.968-8.968 0-5.244 4.408-8.892 9.5-8.892 4.864 0 7.6 2.28 9.88 6.232z"/><path d="m829.130108 59.356-11.552 23.408h6.916l26.372-55.784h-6.916l-11.552 25.612-12.616-25.612h-7.068z"/><path d="m876.520469 32.604c-1.596-3.724-5.396-6.612-9.5-6.612-5.776 0-10.64 4.104-10.64 10.108 0 11.248 16.112 8.512 16.112 16.492 0 3.268-2.508 5.472-5.776 5.472-4.028 0-5.776-2.356-7.296-5.7l-5.396 2.28c1.9 5.624 6.612 9.044 12.616 9.044 6.612 0 12.084-4.864 12.084-11.628 0-6.004-4.104-8.512-8.284-10.26s-8.284-2.964-8.284-6.232c0-2.28 2.28-3.952 4.408-3.952 2.204 0 4.028 1.748 4.864 3.648z"/><path d="m894.19483 32.604h6.384v-5.624h-6.384v-12.844h-6.08v12.844h-3.724v5.624h3.724v30.096h6.08z"/><path d="m937.633191 46.132c.608-10.64-5.472-20.14-16.948-20.14-11.172 0-17.328 8.74-17.328 19.304 0 10.26 6.84 18.392 17.48 18.392 7.296 0 13.072-3.648 16.492-10.032l-5.168-2.964c-2.356 4.256-5.7 7.372-10.868 7.372-6.916 0-11.628-5.32-11.704-11.932zm-27.74-5.168c.76-5.168 5.624-9.348 10.868-9.348 5.32 0 9.652 4.18 10.488 9.348z"/><path d="m952.571552 26.98h-6.08v35.72h6.08v-18.468c0-5.396.76-12.616 7.904-12.616 5.852 0 6.384 6.384 6.384 10.792v20.292h6.08v-18.924c0-5.396.76-12.16 7.752-12.16 6.232 0 6.536 5.7 6.536 10.336v20.748h6.08v-21.736c0-7.524-2.28-14.972-11.4-14.972-4.332 0-8.588 1.976-10.716 5.928-1.9-3.724-5.7-5.928-9.88-5.928-3.648 0-6.688 1.9-8.588 4.864h-.152z"/></g></g></svg>