<?xml version="1.0" encoding="UTF-8"?>
<svg id="Vrstva_1" data-name="Vrstva 1" xmlns="http://www.w3.org/2000/svg" viewBox="0 0 1272.67 351.1">
  <defs>
    <style>
      .cls-1 {
        fill: #eca701;
        stroke-width: 0px;
      }
    </style>
  </defs>
  <path class="cls-1" d="M.32,185.32C-9.44,18.88,204-64.83,313.67,59.92c79.08,82.62,47.65,227.79-56.76,273.67C145.06,387.83,6.04,309.82.32,185.32ZM179.25,327c100.14,2.43,180.1-99.78,149.52-195.11C307.97,57.86,227.39,9.51,151.55,24.26-34.02,61.82-9.65,322.8,179.25,327ZM661.27,232.49c.76,1.9,1.61,2.65,3.7,2.62,8.78-.1,17.56-.09,26.35,0,1.94.02,2.64-.52,3.08-2.53,4.92-22.56,9.98-45.09,15.01-67.62,1.83-8.2,3.67-16.39,5.47-24.59.68-3.11.53-3.28-2.81-3.29-8.25-.02-16.5.1-24.75-.07-2.53-.05-3.36.8-3.83,3.17-3.22,15.23-6.85,30.32-10.15,45.57-7.99-14.25-13.28-30.79-20.28-45.85-.89-2.09-1.97-2.93-4.37-2.88-8.51.17-17.03.06-25.55.07-3.53,0-3.53.02-4.37,3.38-7.12,31.59-14.07,62.98-21.12,94.62,10.18,0,19.87-.02,29.57.02,1.43,0,2.07-.42,2.38-1.92,3.59-17.05,7.13-32.88,10.94-50.17,8.19,16.06,13.6,32.95,20.72,49.49ZM926.99,173.47c2.34.03,3.4-1.41,4.28-2.97,5.24-9.34,4.19-20.98-5.97-27.42-16.47-9.42-36.71-7.63-54.84-5.19-18.46,2.09-36.9,16.16-32.95,36.19,6.18,23.67,38.98,16.85,54.72,29.66,8.49,13.77-16.56,13.88-24.59,11.62-12.34-2.31-3.52-12.82-9.94-12.48-6.79.08-13.57.03-20.36.03-8.72,0-8.86-.01-9.51,8.68-1.44,28.09,37.12,26.16,56.93,25.06,19.03-.85,41.81-9.88,41.35-31.97,1.04-27.68-34.95-23.04-52.43-32.24-2.62-1.44-4.61-3.53-4.54-6.9-.87-12.7,45.4-13.68,29.78,7.81,9.38.24,18.68-.05,28.06.14ZM710.52,235.07c14.09-31.96,28.56-62.98,42.77-94.79,1.08-2.39,2.26-3.31,5-3.28,16.63.15,33.25.07,49.88.08,3.93,0,3.48-.25,3.61,3.68,1.01,30.78.36,61.58.79,92.36.15,1.61-.7,1.98-2.15,1.97-37.49-1.73-30.34,7.9-29.89-19.46.1-1.29-.33-1.92-1.76-1.91-8.38.04-16.76.06-25.14-.02-1.88-.02-2.08,1.33-2.54,2.49-2.19,5.49-4.32,11.01-6.5,16.5-.47,1.19-.77,2.42-2.62,2.41-10.23-.07-20.46-.03-31.45-.03ZM759.68,195.46c6.31,0,12.38.01,18.45,0,3.32-.01,3.56-.08,3.71-3.52.43-9.55.85-19.11,1.63-28.64.2-3.98-5.54-1.58-7.97-2.31-2.07-.18-3.05.66-3.77,2.55-3.78,10.91-8.87,20.73-12.05,31.93ZM1041.59,234.65c13.1-31.69,28.45-62.71,42.21-94.22,1.15-2.55,2.46-3.45,5.3-3.43,16.49.14,32.99.07,49.48.07,4.19,0,3.64-.29,3.78,3.91,1.02,30.38.35,60.8.79,91.18.3,2.13-.43,2.99-2.78,2.96-9.04-.12-18.09-.03-27.14-.06-2.94,0-3.02-.06-2.9-3.13.19-4.99.56-9.97.75-14.96.12-3.19.03-3.23-3.16-3.24-30.67,1.5-21.92-7.49-32.82,19.17-.49,1.24-1.01,2.22-2.78,2.2-10.19-.45-20.71.58-30.73-.47ZM1090.26,195.46c6.18,0,12.12,0,18.06,0,3.76,0,3.94-.01,4.1-3.53.44-9.55.85-19.11,1.63-28.64.2-3.98-5.55-1.57-7.98-2.31-2.08-.18-3.05.66-3.76,2.56-3.78,10.9-8.88,20.73-12.04,31.93ZM567.37,137.05c-1.62-.01-2.23.52-2.58,2.15-4.65,20.86-9.33,41.73-14.23,62.54-1.93,12.75-16.86,15.84-27.71,13.1-7.1-.92-7.59-9.13-6.35-14.81,4.66-20.81,9.42-41.69,14.06-62.48-9.02-1.28-18.44-.08-27.63-.47-3.51,0-3.52.02-4.3,3.51-4.21,18.69-8.39,37.38-12.62,56.06-2.33,10.19-4,22.45,4.19,30.58,15.74,14.47,53.71,11.96,71.67,2.42,11.61-6.58,17.79-16.94,20.63-29.54,4.42-20.91,10.01-41.59,13.67-62.63-9.47-.98-19.22-.05-28.8-.42ZM1240.87,137.03c-1.88-.02-2.48.98-3.1,2.4-7.58,17.2-15.2,34.39-22.81,51.58-2.61,5.89-5.28,11.76-7.8,17.68-.75,1.77-1.63,3.05-3.76,2.52-1.96-.49-1.13-2.17-1.12-3.3.48-22.76.6-45.51.61-68.27.02-2.2-.83-2.61-2.79-2.6-9.44.07-18.89.02-28.33.04-3.01,0-3.15.06-3.04,3.02.24,6.83.39,13.67.46,20.49.27,23.68.48,47.36,1,71.03.08,3.55-.41,3.45,3.42,3.45,15.96,0,31.92-.09,47.88.08,3.08.03,4.66-.81,6-3.64,14.96-31.64,30.31-62.72,45.19-94.44-11.07,0-21.44.04-31.8-.04ZM971.52,231.78c-.68,3.07-.5,3.28,2.83,3.29,8.25.02,16.49.02,24.74,0,3.3,0,3.32-.03,4.05-3.34,1.78-8.07,3.52-16.15,5.3-24.22,3.36-15.24,6.75-30.48,10.12-45.72.74-3.34.71-3.35,4.02-3.38,11.97,0,23.94-.05,35.92.03,2.26.02,3.73-.22,4.03-2.97.91-6.03,3.19-11.9,3.81-17.99-38.24-.53-78.02-1.22-115.88.18-1.53,1.47-1.6,4.57-2.04,7-.81,4.47-2.5,8.78-2.66,13.77h41.71c-4.24,24.62-10.92,48.84-15.96,73.35ZM414.55,137.07q-5.02,0-6.08,4.71c-6.94,31.02-13.94,61.89-20.75,92.97,25.93.38,52.87,1,78.5-.15,1.63-1.33,1.31-4.12,1.85-6.26,1.18-4.75,2.15-9.54,3.29-14.73h-47.51c5.68-25.6,11.28-50.8,16.99-76.54-9.3,0-17.79,0-26.29,0ZM214.64,46.52c-223.79-44.23-225.33,297.87-.05,254.53-132.42-36.52-127.25-221.24.05-254.53ZM199.19,130.96c-8.25,0-16.5-.02-24.74,0-3.12,0-3.18.05-3.19,2.95-.03,8.69-.03,17.38,0,26.07,0,2.9.06,2.95,3.16,2.95,16.36,0,32.72,0,49.09-.03,3.32,0,3.38-.07,3.4-3.3.03-8.43.03-16.85,0-25.28-.01-3.25-.07-3.31-3.37-3.32-8.11-.03-16.23-.01-24.34-.01v-.03ZM198.81,234.96c8.25,0,16.49.02,24.74,0,3.28-.01,3.34-.06,3.36-3.32.04-8.42-.04-16.85.05-25.27.02-2.09-.4-3.04-2.82-3.02-16.76.08-33.51.06-50.27-.03-2.16-.01-2.66.75-2.64,2.73.09,8.69.02,17.38.05,26.06,0,2.85.07,2.89,3.21,2.9,8.11.02,16.23,0,24.34,0v-.03ZM198.54,199.49c8.38,0,16.76-.06,25.14.04,2.22.03,2.97-.63,2.94-2.88-.12-8.55-.03-17.11-.06-25.67,0-3-.06-3.06-3.04-3.07-16.49-.03-32.98.01-49.47-.09-2.31-.01-2.86.77-2.84,2.92.1,8.56.03,17.11.05,25.67,0,3.07.04,3.1,3.34,3.1,7.98.01,15.96,0,23.94,0v-.03ZM229.77,194.62c0,5.14,0,5.12,4.73,3.43,17.24-6.05,34.48-12.1,51.79-17.97,2.26-.76,3.19-1.78,3.1-4.2-.18-5.13-.03-10.27-.06-15.41-.02-3.6-.08-3.64-3.52-2.99-5.31,1.02-10.61,2.32-15.92,3.1-12.3,1.8-24.41,4.59-36.68,6.52-3.12.49-3.39.95-3.43,4.2-.04,4.08-.01,8.17-.01,12.25,0,3.69,0,7.37,0,11.06ZM229.78,159.34c.03,3.51.2,3.65,3.54,3.13,6.94-1.08,13.88-2.19,20.81-3.31,10.46-1.7,20.91-3.37,31.36-5.15,3.85-.66,3.84-.78,3.85-4.82,0-4.61.01-9.21,0-13.82,0-3.88-.02-3.9-3.89-3.91-14.76-.02-29.52,0-44.28-.06-15.71-1.2-10.51-.89-11.39,15.69,0,4.08-.03,8.16,0,12.24ZM229.79,231.89c-.42,4.58,3.73,1.42,5.91.4,16.93-9.03,33.76-18.25,50.75-27.16,2.19-1.14,3.01-2.54,2.93-4.96-.77-22.56,4.45-18.66-17.17-11.73-12.85,4.53-25.71,9.05-38.56,13.59-3.66,1.3-3.86,1.6-3.87,5.38-.02,3.82,0,7.63,0,11.45,0,4.34-.04,8.68.02,13.03ZM291.72,176.25c-.02,1.25.34,1.96,1.77,1.93,3.04-.06,6.09-.06,9.13-.03,1.3.01,1.92-.43,1.91-1.81-.04-5.89-.04-11.79,0-17.68,0-1.29-.43-1.94-1.81-1.93-12.72.26-10.99-2.61-10.97,10.48,0,3.01.03,6.02-.01,9.04ZM291.72,201.51c-.02,1.25.34,1.96,1.77,1.93,3.04-.06,6.09-.06,9.13-.03,1.3.01,1.92-.43,1.91-1.81-.04-5.89-.04-11.79,0-17.68,0-1.29-.43-1.94-1.81-1.93-12.72.26-10.99-2.61-10.97,10.48,0,3.01.03,6.02-.01,9.04ZM291.72,151.35c-.02,1.25.34,1.96,1.77,1.93,3.04-.06,6.09-.06,9.13-.03,1.3.01,1.92-.43,1.91-1.81-.04-5.89-.04-11.79,0-17.68,0-1.29-.43-1.94-1.81-1.93-12.72.26-10.99-2.61-10.97,10.48,0,3.01.03,6.02-.01,9.04Z"/>
</svg>