<?xml version="1.0" encoding="utf-8"?>
<!-- Generator: Adobe Illustrator 26.1.0, SVG Export Plug-In . SVG Version: 6.00 Build 0)  -->
<svg version="1.1" id="Layer_1" xmlns="http://www.w3.org/2000/svg" xmlns:xlink="http://www.w3.org/1999/xlink" x="0px" y="0px"
	 viewBox="0 0 400 150" style="enable-background:new 0 0 400 150;" xml:space="preserve">
<style type="text/css">
	.st0{fill:url(#SVGID_1_);}
	.st1{fill:url(#SVGID_00000034799085628835153100000010729562304087900861_);}
	.st2{fill:url(#SVGID_00000162331346502349811640000016107719391734944954_);}
	.st3{fill:url(#SVGID_00000060750799929580124790000001494429339498906753_);}
	.st4{fill:url(#SVGID_00000168832233839868566720000006882118025732199845_);}
	.st5{fill:url(#SVGID_00000133502774395974051480000003510205451025417882_);}
	.st6{fill:url(#SVGID_00000181080777452838317970000009055746682307706809_);}
	.st7{fill:url(#SVGID_00000055703431073219415080000003057066060414377658_);}
	.st8{fill:url(#SVGID_00000007387810242285412240000002129001693253368507_);}
	.st9{fill:url(#SVGID_00000090295498867427833060000009731465326312520853_);}
	.st10{fill:url(#SVGID_00000174591913641101733080000003920575102891378073_);}
	.st11{fill:url(#SVGID_00000182529371863419906850000003410642800000022197_);}
	.st12{fill:url(#SVGID_00000022555659564262725510000010628436093264132524_);}
	.st13{fill:url(#SVGID_00000163770453370866906740000014427970934171352730_);}
	.st14{fill:url(#SVGID_00000134943606952964677410000017969926697561956509_);}
	.st15{fill:url(#SVGID_00000039095032665680786650000002248500791797341825_);}
	.st16{fill:url(#SVGID_00000003804121727447868400000007817535128773728947_);}
	.st17{fill:url(#SVGID_00000019661349958475365480000008960224433413863318_);}
	.st18{fill:url(#SVGID_00000145746092216389087310000000761666306490125972_);}
</style>
<g>
	<g>
		<radialGradient id="SVGID_1_" cx="119.4751" cy="72.6247" r="0.4039" gradientUnits="userSpaceOnUse">
			<stop  offset="0" style="stop-color:#E0A22F"/>
			<stop  offset="1" style="stop-color:#CF9233"/>
		</radialGradient>
		<path class="st0" d="M115.06,88.4c0.39-3.64,0.67-6.61,0.84-8.91c0.33-4.2,0.57-8.37,0.73-12.51c0.16-4.14,0.24-7.54,0.24-10.17
			c2.1,0.03,3.96,0.05,5.57,0.05c1.1,0,2.67-0.02,4.72-0.05l-0.56,8.38l-0.7,13.1l-0.09,3.22c2.66,0.05,4.38,0.07,5.19,0.07
			c4.06,0,7.13-0.05,9.22-0.16l-0.51,6.99c-4.06-0.03-7.93-0.05-11.6-0.05C123.15,88.36,118.8,88.37,115.06,88.4z"/>
		
			<radialGradient id="SVGID_00000083061098302280087100000002271104000132030602_" cx="119.4751" cy="72.6247" r="0.4039" gradientUnits="userSpaceOnUse">
			<stop  offset="0" style="stop-color:#E0A22F"/>
			<stop  offset="1" style="stop-color:#CF9233"/>
		</radialGradient>
		<path style="fill:url(#SVGID_00000083061098302280087100000002271104000132030602_);" d="M144.47,56.8
			c2.41,0.03,4.1,0.05,5.09,0.05c1.23,0,2.88-0.02,4.93-0.05l-0.69,9.84c-0.14,1.85-0.24,3.59-0.31,5.21
			c-0.07,1.62-0.1,2.74-0.1,3.36c0,1.17,0.08,2.15,0.25,2.94s0.48,1.46,0.93,2c0.45,0.55,1.07,0.96,1.86,1.24
			c0.79,0.28,1.62,0.42,2.49,0.42c0.74,0,1.43-0.1,2.08-0.3c0.51-0.17,0.96-0.39,1.36-0.69c0.35-0.28,0.66-0.6,0.93-0.96
			c0.32-0.44,0.61-0.99,0.86-1.65c0.25-0.62,0.43-1.43,0.56-2.43c0.14-1.01,0.32-3.31,0.56-6.89c0.2-3.05,0.35-5.84,0.46-8.38
			c0.09-2.46,0.18-3.69,0.25-3.69c2.33,0,4.17,0,5.51,0h4.7l-1.13,16.44c-0.02,0.31-0.02,0.56-0.02,0.76
			c-0.06,3.21-0.26,5.48-0.59,6.79c-0.33,1.32-0.88,2.47-1.66,3.44c-0.77,0.97-1.9,1.85-3.38,2.63c-1.48,0.78-3.16,1.33-5.05,1.66
			c-1.88,0.32-3.79,0.49-5.72,0.49c-1.73,0-3.4-0.12-5-0.37c-1.48-0.25-2.82-0.61-4.01-1.08c-1.19-0.47-2.22-1.02-3.1-1.66
			c-0.8-0.59-1.42-1.18-1.85-1.79c-0.43-0.61-0.77-1.34-1.02-2.19c-0.28-0.96-0.42-1.98-0.42-3.08c0-0.37,0.02-0.93,0.05-1.68
			c0.03-0.75,0.1-1.82,0.21-3.23l0.3-3.7c0.08-0.97,0.16-2.4,0.26-4.28L144.47,56.8z"/>
		
			<radialGradient id="SVGID_00000008852588106573088440000017294366261944446855_" cx="119.4751" cy="72.6247" r="0.4039" gradientUnits="userSpaceOnUse">
			<stop  offset="0" style="stop-color:#E0A22F"/>
			<stop  offset="1" style="stop-color:#CF9233"/>
		</radialGradient>
		<path style="fill:url(#SVGID_00000008852588106573088440000017294366261944446855_);" d="M179.95,88.4l0.46-4.86l0.9-16.48
			l0.25-6.64V56.8c2.4,0.03,4.51,0.05,6.35,0.05c1.31,0,3.16-0.02,5.54-0.05l9.88,17.97l1.36,2.64c0.17-2.59,0.35-6.23,0.53-10.91
			c0.18-4.68,0.27-7.91,0.27-9.7c1.9,0.03,3.42,0.05,4.56,0.05c0.52,0,2.04-0.02,4.53-0.05l-0.56,6.9l-1.04,19.17l-0.14,5.53
			c-2.01-0.03-3.88-0.05-5.63-0.05c-1.45,0-3.46,0.02-6.02,0.05c-0.8-1.51-1.4-2.61-1.78-3.29l-3.88-6.6
			c-1.28-2.16-2.46-4.23-3.54-6.21c-0.71-1.25-1.44-2.62-2.2-4.12l-0.5,10.98l-0.24,9.24c-1.91-0.03-3.37-0.05-4.37-0.05
			C183.87,88.36,182.28,88.37,179.95,88.4z"/>
		
			<radialGradient id="SVGID_00000040561084139182798430000011843670870014731934_" cx="119.4751" cy="72.6247" r="0.4039" gradientUnits="userSpaceOnUse">
			<stop  offset="0" style="stop-color:#E0A22F"/>
			<stop  offset="1" style="stop-color:#CF9233"/>
		</radialGradient>
		<path style="fill:url(#SVGID_00000040561084139182798430000011843670870014731934_);" d="M214.7,88.4l1.92-3.33l11.98-22.55
			l1.27-2.52c0.37-0.74,0.89-1.81,1.55-3.19c2.72,0.03,4.7,0.05,5.95,0.05c2.18,0,4.19-0.02,6.04-0.05l3.38,9.65l6.87,18.57
			l1.34,3.38c-2.67-0.03-4.29-0.05-4.87-0.05c-1.3,0-3.21,0.02-5.72,0.05c-0.68-2.55-1.66-5.54-2.94-8.98h-11.65
			c-1.34,2.72-2.73,5.71-4.16,8.98c-2.87-0.03-4.63-0.05-5.28-0.05C219.21,88.36,217.31,88.37,214.7,88.4z M232.63,72.69h7.19
			c-1.79-5.44-2.77-8.44-2.93-8.99c-1.02,2.27-1.88,4.12-2.59,5.57L232.63,72.69z"/>
		
			<radialGradient id="SVGID_00000072983601870279986080000002014281266299618475_" cx="119.4751" cy="72.6247" r="0.4039" gradientUnits="userSpaceOnUse">
			<stop  offset="0" style="stop-color:#E0A22F"/>
			<stop  offset="1" style="stop-color:#CF9233"/>
		</radialGradient>
		<path style="fill:url(#SVGID_00000072983601870279986080000002014281266299618475_);" d="M257.16,87.92
			c-0.2-3.29-0.43-5.92-0.69-7.89c1.73,0.77,3.27,1.31,4.63,1.61c1.35,0.3,2.54,0.45,3.56,0.45c1.34,0,2.42-0.2,3.21-0.59
			c0.8-0.39,1.2-0.98,1.2-1.75c0-0.26-0.04-0.51-0.12-0.75c-0.08-0.24-0.22-0.51-0.44-0.81c-0.22-0.3-0.53-0.63-0.93-0.98l-4.36-3.8
			c-1.02-0.86-1.73-1.49-2.13-1.88c-0.82-0.79-1.46-1.52-1.91-2.2c-0.46-0.68-0.79-1.37-1-2.07c-0.21-0.7-0.31-1.45-0.31-2.23
			c0-0.94,0.17-1.86,0.5-2.77s0.83-1.75,1.49-2.53c0.66-0.79,1.54-1.47,2.64-2.04c1.1-0.57,2.27-0.96,3.52-1.17s2.54-0.31,3.87-0.31
			c2.61,0,5.45,0.3,8.52,0.9c0.05,1.06,0.1,2.04,0.16,2.93s0.21,2.44,0.44,4.66c-1.42-0.57-2.72-0.97-3.89-1.19
			s-2.18-0.34-3.03-0.34c-1.2,0-2.2,0.22-3,0.67c-0.79,0.45-1.19,1-1.19,1.67c0,0.31,0.06,0.61,0.19,0.9
			c0.12,0.29,0.36,0.64,0.69,1.03c0.34,0.39,0.79,0.83,1.34,1.3s1.43,1.17,2.62,2.1l1.67,1.32c0.49,0.4,1.03,0.89,1.6,1.46
			c0.57,0.57,1.06,1.13,1.48,1.69s0.74,1.06,0.96,1.53c0.22,0.46,0.39,0.93,0.5,1.4c0.11,0.47,0.16,0.98,0.16,1.52
			c0,1.39-0.33,2.71-1,3.97c-0.66,1.26-1.61,2.29-2.82,3.1c-1.22,0.81-2.56,1.38-4.02,1.7c-1.46,0.32-3,0.49-4.62,0.49
			C264.13,89.01,260.97,88.64,257.16,87.92z"/>
		
			<radialGradient id="SVGID_00000106865250242837976090000011982082550501622660_" cx="119.4751" cy="72.6247" r="0.4039" gradientUnits="userSpaceOnUse">
			<stop  offset="0" style="stop-color:#E0A22F"/>
			<stop  offset="1" style="stop-color:#CF9233"/>
		</radialGradient>
		<path style="fill:url(#SVGID_00000106865250242837976090000011982082550501622660_);" d="M290.68,88.4
			c0.77-7.5,1.23-15.76,1.38-24.77l-9.85,0.25l0.12-2.57c0.06-1.37,0.11-2.88,0.14-4.51c4.38,0.03,9.49,0.05,15.32,0.05l5.72-0.02
			h5.55l3.01-0.02l-0.14,2.27c-0.06,1.22-0.1,2.22-0.13,3.02c-0.02,0.8-0.03,1.4-0.03,1.8c-3.3-0.17-6.02-0.25-8.17-0.25h-1.62
			c-0.23,2.73-0.41,5.25-0.54,7.56c-0.17,3.31-0.3,6.53-0.4,9.65c-0.09,3.12-0.14,5.64-0.14,7.57c-2.53-0.03-4.16-0.05-4.9-0.05
			C295.34,88.36,293.57,88.37,290.68,88.4z"/>
		
			<radialGradient id="SVGID_00000045602175149185208990000016286427460608090528_" cx="119.4751" cy="72.6247" r="0.4039" gradientUnits="userSpaceOnUse">
			<stop  offset="0" style="stop-color:#E0A22F"/>
			<stop  offset="1" style="stop-color:#CF9233"/>
		</radialGradient>
		<path style="fill:url(#SVGID_00000045602175149185208990000016286427460608090528_);" d="M309.6,88.4l1.92-3.33l11.98-22.55
			l1.27-2.52c0.37-0.74,0.89-1.81,1.55-3.19c2.72,0.03,4.7,0.05,5.95,0.05c2.18,0,4.19-0.02,6.04-0.05l3.38,9.65l6.87,18.57
			l1.34,3.38c-2.67-0.03-4.29-0.05-4.87-0.05c-1.3,0-3.21,0.02-5.72,0.05c-0.68-2.55-1.66-5.54-2.94-8.98h-11.65
			c-1.34,2.72-2.73,5.71-4.16,8.98c-2.87-0.03-4.63-0.05-5.28-0.05C314.1,88.36,312.21,88.37,309.6,88.4z M327.52,72.69h7.19
			c-1.79-5.44-2.77-8.44-2.93-8.99c-1.02,2.27-1.88,4.12-2.59,5.57L327.52,72.69z"/>
		
			<radialGradient id="SVGID_00000093152379153276414780000003681977204984028307_" cx="119.4751" cy="72.6247" r="0.4039" gradientUnits="userSpaceOnUse">
			<stop  offset="0" style="stop-color:#E0A22F"/>
			<stop  offset="1" style="stop-color:#CF9233"/>
		</radialGradient>
		<path style="fill:url(#SVGID_00000093152379153276414780000003681977204984028307_);" d="M360.75,88.4l-0.86-2.82l-5.65-16.28
			l-4.45-12.5c2.1,0.03,3.96,0.05,5.6,0.05c1,0,2.58-0.02,4.72-0.05c0.36,1.37,0.63,2.42,0.83,3.13c0.28,0.93,0.8,2.6,1.58,5.03
			l3.41,10.96c0.34,1.14,0.76,2.63,1.25,4.47l1.06-2.66l8.07-17.7c0.14-0.32,0.3-0.69,0.47-1.11c0.18-0.42,0.46-1.12,0.84-2.11
			c2.24,0.03,4.04,0.05,5.4,0.05c0.85,0,2.53-0.02,5.05-0.05c-1.57,2.93-3.35,6.36-5.34,10.28l-7.98,15.83
			c-0.77,1.54-1.63,3.37-2.59,5.49c-2.59-0.03-4.45-0.05-5.56-0.05C365.57,88.36,363.62,88.37,360.75,88.4z"/>
	</g>
</g>
<linearGradient id="SVGID_00000158716493713987446230000006559972058732278975_" gradientUnits="userSpaceOnUse" x1="23.2807" y1="74.5384" x2="69.7664" y2="74.5384">
	<stop  offset="0" style="stop-color:#B67A36"/>
	<stop  offset="1" style="stop-color:#E4A731"/>
</linearGradient>
<path style="fill:url(#SVGID_00000158716493713987446230000006559972058732278975_);" d="M42.79,74.54
	c0-16.73,11.43-30.82,26.98-35.05c-3.11-0.84-6.38-1.3-9.75-1.3c-20.29,0-36.73,16.28-36.73,36.35s16.45,36.35,36.73,36.35
	c3.38,0,6.65-0.45,9.75-1.3C54.22,105.36,42.79,91.27,42.79,74.54z"/>
<linearGradient id="SVGID_00000025418958255857440480000005759645439132596139_" gradientUnits="userSpaceOnUse" x1="11.2315" y1="75" x2="108.7927" y2="75">
	<stop  offset="7.458905e-08" style="stop-color:#B87D37"/>
	<stop  offset="1" style="stop-color:#E1A32F"/>
</linearGradient>
<path style="fill:url(#SVGID_00000025418958255857440480000005759645439132596139_);" d="M60.01,26.72
	c-26.94,0-48.78,21.61-48.78,48.28s21.84,48.28,48.78,48.28s48.78-21.61,48.78-48.28S86.95,26.72,60.01,26.72z M60.01,116.77
	c-23.45,0-42.47-18.82-42.47-42.03s19.01-42.03,42.47-42.03s42.47,18.82,42.47,42.03S83.47,116.77,60.01,116.77z"/>
<g>
	
		<linearGradient id="SVGID_00000017486464219086693910000004815100393243534996_" gradientUnits="userSpaceOnUse" x1="74.8893" y1="68.5392" x2="90.9617" y2="68.5392" gradientTransform="matrix(1 0 0 1 -1.0229 -1.3528)">
		<stop  offset="0" style="stop-color:#B67A36"/>
		<stop  offset="1" style="stop-color:#E4A731"/>
	</linearGradient>
	<path style="fill:url(#SVGID_00000017486464219086693910000004815100393243534996_);" d="M89.79,68.95L74.17,71.5
		c-0.17,0.03-0.3-0.05-0.3-0.16v-8.26c0-0.12,0.14-0.21,0.3-0.21l15.62,0.04c0.08,0,0.15,0.07,0.15,0.15v5.73
		C89.94,68.86,89.87,68.94,89.79,68.95z"/>
	
		<linearGradient id="SVGID_00000119823792046062619330000004603559330621485959_" gradientUnits="userSpaceOnUse" x1="91.6773" y1="67.1781" x2="95.1062" y2="67.1781" gradientTransform="matrix(1 0 0 1 -1.0229 -1.3528)">
		<stop  offset="0" style="stop-color:#B67A36"/>
		<stop  offset="1" style="stop-color:#E4A731"/>
	</linearGradient>
	<path style="fill:url(#SVGID_00000119823792046062619330000004603559330621485959_);" d="M94.04,68.78l-3.34,0
		c-0.02,0-0.04-0.06-0.04-0.14v-5.6c0-0.08,0.02-0.14,0.04-0.14l3.32-0.03c0.02,0,0.05,0.06,0.05,0.14l0.02,5.62
		C94.08,68.71,94.06,68.78,94.04,68.78z"/>
	
		<linearGradient id="SVGID_00000117654392674385540110000015963922678584834736_" gradientUnits="userSpaceOnUse" x1="91.6773" y1="74.1444" x2="95.1468" y2="74.1444" gradientTransform="matrix(1 0 0 1 -1.0229 -1.3528)">
		<stop  offset="0" style="stop-color:#B67A36"/>
		<stop  offset="1" style="stop-color:#E4A731"/>
	</linearGradient>
	<path style="fill:url(#SVGID_00000117654392674385540110000015963922678584834736_);" d="M94.08,75.73l-3.38,0
		c-0.03,0-0.05-0.06-0.05-0.14v-5.6c0-0.08,0.02-0.14,0.05-0.14l3.38,0.01c0.03,0,0.05,0.06,0.05,0.14l0,5.58
		C94.12,75.67,94.1,75.73,94.08,75.73z"/>
	
		<linearGradient id="SVGID_00000054248507552947338750000008050788316071340219_" gradientUnits="userSpaceOnUse" x1="91.6773" y1="81.0801" x2="95.1062" y2="81.0801" gradientTransform="matrix(1 0 0 1 -1.0229 -1.3528)">
		<stop  offset="0" style="stop-color:#B67A36"/>
		<stop  offset="1" style="stop-color:#E4A731"/>
	</linearGradient>
	<path style="fill:url(#SVGID_00000054248507552947338750000008050788316071340219_);" d="M94.04,82.68l-3.34,0
		c-0.02,0-0.04-0.06-0.04-0.14v-5.6c0-0.08,0.02-0.14,0.04-0.14l3.32-0.03c0.02,0,0.05,0.06,0.05,0.14l0.02,5.62
		C94.08,82.62,94.06,82.68,94.04,82.68z"/>
	
		<linearGradient id="SVGID_00000126286074829079437850000002955204860337087129_" gradientUnits="userSpaceOnUse" x1="74.8893" y1="77.0824" x2="90.9618" y2="77.0824" gradientTransform="matrix(1 0 0 1 -1.0229 -1.3528)">
		<stop  offset="0" style="stop-color:#B67A36"/>
		<stop  offset="1" style="stop-color:#E4A731"/>
	</linearGradient>
	<path style="fill:url(#SVGID_00000126286074829079437850000002955204860337087129_);" d="M89.79,76.02l-15.62,5.47
		c-0.17,0.06-0.3,0.01-0.3-0.11v-8.26c0-0.12,0.14-0.24,0.3-0.27l15.62-2.91c0.08-0.02,0.15,0.04,0.15,0.12l0,5.76
		C89.94,75.91,89.87,75.99,89.79,76.02z"/>
	
		<linearGradient id="SVGID_00000005254522079258732600000011305569564860840614_" gradientUnits="userSpaceOnUse" x1="74.8893" y1="85.5199" x2="90.9618" y2="85.5199" gradientTransform="matrix(1 0 0 1 -1.0229 -1.3528)">
		<stop  offset="0" style="stop-color:#B67A36"/>
		<stop  offset="1" style="stop-color:#E4A731"/>
	</linearGradient>
	<path style="fill:url(#SVGID_00000005254522079258732600000011305569564860840614_);" d="M89.8,82.82l-15.62,8.44
		c-0.17,0.09-0.32,0.08-0.32-0.04v-8.26c0-0.12,0.14-0.26,0.32-0.33l15.62-5.6c0.08-0.03,0.14,0.01,0.14,0.09v5.48
		C89.94,82.68,89.88,82.77,89.8,82.82z"/>
	
		<linearGradient id="SVGID_00000062173425956810381370000006104794503366781882_" gradientUnits="userSpaceOnUse" x1="57.8652" y1="67.1864" x2="72.9212" y2="67.1864">
		<stop  offset="0" style="stop-color:#B67A36"/>
		<stop  offset="1" style="stop-color:#E4A731"/>
	</linearGradient>
	<path style="fill:url(#SVGID_00000062173425956810381370000006104794503366781882_);" d="M72.83,71.51H57.95
		c-0.05,0-0.09-0.04-0.09-0.09v-8.46c0-0.05,0.04-0.09,0.09-0.09h14.88c0.05,0,0.09,0.04,0.09,0.09v8.46
		C72.92,71.47,72.88,71.51,72.83,71.51z"/>
	
		<linearGradient id="SVGID_00000073717487607368465020000008655978301422518688_" gradientUnits="userSpaceOnUse" x1="57.8652" y1="77.2766" x2="72.9212" y2="77.2766">
		<stop  offset="0" style="stop-color:#B67A36"/>
		<stop  offset="1" style="stop-color:#E4A731"/>
	</linearGradient>
	<path style="fill:url(#SVGID_00000073717487607368465020000008655978301422518688_);" d="M72.83,81.6H57.95
		c-0.05,0-0.09-0.04-0.09-0.09v-8.46c0-0.05,0.04-0.09,0.09-0.09h14.88c0.05,0,0.09,0.04,0.09,0.09v8.46
		C72.92,81.56,72.88,81.6,72.83,81.6z"/>
	
		<linearGradient id="SVGID_00000038382554267888209250000011809475154297349516_" gradientUnits="userSpaceOnUse" x1="57.8652" y1="87.0047" x2="72.9212" y2="87.0047">
		<stop  offset="0" style="stop-color:#B67A36"/>
		<stop  offset="1" style="stop-color:#E4A731"/>
	</linearGradient>
	<path style="fill:url(#SVGID_00000038382554267888209250000011809475154297349516_);" d="M72.83,91.33H57.95
		c-0.05,0-0.09-0.04-0.09-0.09v-8.46c0-0.05,0.04-0.09,0.09-0.09h14.88c0.05,0,0.09,0.04,0.09,0.09v8.46
		C72.92,91.29,72.88,91.33,72.83,91.33z"/>
</g>
</svg>
