<svg xmlns="http://www.w3.org/2000/svg" xmlns:xlink="http://www.w3.org/1999/xlink" version="1.1" id="Layer_1" x="0px" y="0px" style="enable-background:new 0 0 640 480;" xml:space="preserve" viewBox="90.67 16.97 458.66 453.93">
<style type="text/css">
	.st0{fill:url(#SVGID_1_);}
	.st1{fill:url(#SVGID_00000029044098294278558820000007341233830837286786_);}
	.st2{fill:url(#SVGID_00000127032823259914475450000014527098637626234547_);}
	.st3{fill:url(#SVGID_00000080180931916502266120000012472948963453880234_);}
	.st4{fill:url(#SVGID_00000143598547109888057600000004470695758788729231_);}
	.st5{fill:url(#SVGID_00000023961972455695282810000015073545157114640815_);}
	.st6{fill:url(#SVGID_00000039838786667117323710000011279041099901884080_);}
	.st7{fill:url(#SVGID_00000036962081592649428880000010905543578326834619_);}
	.st8{fill:url(#SVGID_00000174592370707282819700000015631114082691299488_);}
	.st9{fill:url(#SVGID_00000168813679925472771280000012470942798562834852_);}
	.st10{fill:url(#SVGID_00000172403296407104819620000013168861980494548903_);}
</style>
<linearGradient id="SVGID_1_" gradientUnits="userSpaceOnUse" x1="123.7874" y1="240" x2="372.7759" y2="240">
	<stop offset="0" style="stop-color:#B77A37"/>
	<stop offset="1" style="stop-color:#E5A832"/>
</linearGradient>
<path class="st0" d="M228.28,240c0-89.63,61.2-165.1,144.5-187.75c-16.64-4.52-34.15-6.95-52.25-6.95  c-108.66,0-196.74,87.17-196.74,194.71s88.08,194.71,196.74,194.71c18.09,0,35.61-2.43,52.25-6.95  C289.48,405.1,228.28,329.63,228.28,240z"/>
<g>
	
		<linearGradient id="SVGID_00000016047578347596610440000011315811886784487356_" gradientUnits="userSpaceOnUse" x1="309.4842" y1="192.9964" x2="392.1699" y2="192.9964">
		<stop offset="0" style="stop-color:#B77A37"/>
		<stop offset="1" style="stop-color:#E5A832"/>
	</linearGradient>
	<path style="fill:url(#SVGID_00000016047578347596610440000011315811886784487356_);" d="M391.35,215.26h-81.04   c-0.45,0-0.82-0.37-0.82-0.82v-42.88c0-0.45,0.37-0.82,0.82-0.82h81.04c0.45,0,0.82,0.37,0.82,0.82v42.88   C392.17,214.89,391.8,215.26,391.35,215.26z"/>
	
		<linearGradient id="SVGID_00000110442728955669658660000016659963860837457832_" gradientUnits="userSpaceOnUse" x1="309.4842" y1="244.4849" x2="392.1699" y2="244.4849">
		<stop offset="0" style="stop-color:#B77A37"/>
		<stop offset="1" style="stop-color:#E5A832"/>
	</linearGradient>
	<path style="fill:url(#SVGID_00000110442728955669658660000016659963860837457832_);" d="M391.35,266.75h-81.04   c-0.45,0-0.82-0.37-0.82-0.82v-42.88c0-0.45,0.37-0.82,0.82-0.82h81.04c0.45,0,0.82,0.37,0.82,0.82v42.88   C392.17,266.38,391.8,266.75,391.35,266.75z"/>
	
		<linearGradient id="SVGID_00000077323298993013850130000010124099898704340144_" gradientUnits="userSpaceOnUse" x1="399.2504" y1="194.2393" x2="481.4564" y2="194.2393" gradientTransform="matrix(1 0 0 1 -1.0229 -1.3528)">
		<stop offset="0" style="stop-color:#B77A37"/>
		<stop offset="1" style="stop-color:#E5A832"/>
	</linearGradient>
	<path style="fill:url(#SVGID_00000077323298993013850130000010124099898704340144_);" d="M479.68,201.94l-79.91,13.06   c-0.85,0.14-1.55-0.23-1.55-0.83v-42.35c0-0.6,0.69-1.08,1.55-1.08l79.91,0.19c0.42,0,0.75,0.34,0.75,0.75v29.38   C480.43,201.48,480.1,201.88,479.68,201.94z"/>
	
		<linearGradient id="SVGID_00000171704601595370368090000014659830612053191604_" gradientUnits="userSpaceOnUse" x1="485.1162" y1="187.2629" x2="502.6541" y2="187.2629" gradientTransform="matrix(1 0 0 1 -1.0229 -1.3528)">
		<stop offset="0" style="stop-color:#B77A37"/>
		<stop offset="1" style="stop-color:#E5A832"/>
	</linearGradient>
	<path style="fill:url(#SVGID_00000171704601595370368090000014659830612053191604_);" d="M501.4,201.05l-17.08,0.02   c-0.13,0-0.23-0.33-0.23-0.74v-28.68c0-0.4,0.1-0.73,0.23-0.73l16.96-0.15c0.13,0,0.23,0.33,0.23,0.73l0.11,28.82   C501.63,200.71,501.53,201.05,501.4,201.05z"/>
	
		<linearGradient id="SVGID_00000130630950299683462220000012961161198040387210_" gradientUnits="userSpaceOnUse" x1="485.1162" y1="222.9689" x2="502.8617" y2="222.9689" gradientTransform="matrix(1 0 0 1 -1.0229 -1.3528)">
		<stop offset="0" style="stop-color:#B77A37"/>
		<stop offset="1" style="stop-color:#E5A832"/>
	</linearGradient>
	<path style="fill:url(#SVGID_00000130630950299683462220000012961161198040387210_);" d="M501.61,236.68l-17.28,0.02   c-0.13,0-0.23-0.33-0.23-0.74v-28.68c0-0.41,0.1-0.73,0.23-0.73l17.27,0.08c0.13,0,0.23,0.33,0.23,0.73l0.01,28.59   C501.84,236.35,501.74,236.68,501.61,236.68z"/>
	
		<linearGradient id="SVGID_00000067232434146941095830000011391310237364399779_" gradientUnits="userSpaceOnUse" x1="485.1162" y1="258.5184" x2="502.6541" y2="258.5184" gradientTransform="matrix(1 0 0 1 -1.0229 -1.3528)">
		<stop offset="0" style="stop-color:#B77A37"/>
		<stop offset="1" style="stop-color:#E5A832"/>
	</linearGradient>
	<path style="fill:url(#SVGID_00000067232434146941095830000011391310237364399779_);" d="M501.4,272.3l-17.08,0.02   c-0.13,0-0.23-0.33-0.23-0.74V242.9c0-0.4,0.1-0.73,0.23-0.73l16.96-0.15c0.13,0,0.23,0.33,0.23,0.73l0.11,28.82   C501.63,271.97,501.53,272.3,501.4,272.3z"/>
	
		<linearGradient id="SVGID_00000072241331222134144470000015085733901192457116_" gradientUnits="userSpaceOnUse" x1="399.2504" y1="238.0281" x2="481.4567" y2="238.0281" gradientTransform="matrix(1 0 0 1 -1.0229 -1.3528)">
		<stop offset="0" style="stop-color:#B77A37"/>
		<stop offset="1" style="stop-color:#E5A832"/>
	</linearGradient>
	<path style="fill:url(#SVGID_00000072241331222134144470000015085733901192457116_);" d="M479.68,238.18l-79.91,28.03   c-0.85,0.3-1.54,0.05-1.54-0.55v-42.35c0-0.6,0.69-1.21,1.54-1.37l79.91-14.91c0.42-0.08,0.75,0.2,0.75,0.62l0,29.51   C480.43,237.58,480.1,238.03,479.68,238.18z"/>
	
		<linearGradient id="SVGID_00000104700998806765791410000011409094714772662153_" gradientUnits="userSpaceOnUse" x1="309.4842" y1="294.872" x2="392.1699" y2="294.872">
		<stop offset="0" style="stop-color:#B77A37"/>
		<stop offset="1" style="stop-color:#E5A832"/>
	</linearGradient>
	<path style="fill:url(#SVGID_00000104700998806765791410000011409094714772662153_);" d="M391.35,317.13h-81.04   c-0.45,0-0.82-0.37-0.82-0.82v-42.88c0-0.45,0.37-0.82,0.82-0.82h81.04c0.45,0,0.82,0.37,0.82,0.82v42.88   C392.17,316.77,391.8,317.13,391.35,317.13z"/>
	
		<linearGradient id="SVGID_00000125561898663057170750000008243741250636630926_" gradientUnits="userSpaceOnUse" x1="399.2504" y1="281.2751" x2="481.4567" y2="281.2751" gradientTransform="matrix(1 0 0 1 -1.0229 -1.3528)">
		<stop offset="0" style="stop-color:#B77A37"/>
		<stop offset="1" style="stop-color:#E5A832"/>
	</linearGradient>
	<path style="fill:url(#SVGID_00000125561898663057170750000008243741250636630926_);" d="M479.71,273l-79.87,43.26   c-0.89,0.48-1.62,0.39-1.62-0.21V273.7c0-0.6,0.73-1.35,1.62-1.67l79.87-28.71c0.4-0.14,0.72,0.06,0.72,0.46v28.11   C480.43,272.29,480.11,272.78,479.71,273z"/>
</g>
<linearGradient id="SVGID_00000168083036296850703250000005299040428249589690_" gradientUnits="userSpaceOnUse" x1="90.6668" y1="243.9342" x2="549.3332" y2="243.9342">
	<stop offset="0" style="stop-color:#B77A37"/>
	<stop offset="1" style="stop-color:#E5A832"/>
</linearGradient>
<path style="fill:url(#SVGID_00000168083036296850703250000005299040428249589690_);" d="M320,16.97  c-126.66,0-229.33,101.61-229.33,226.96S193.34,470.9,320,470.9s229.33-101.61,229.33-226.96S446.66,16.97,320,16.97z M320,454.35  c-118.8,0-215.11-95.31-215.11-212.89S201.2,28.57,320,28.57s215.11,95.31,215.11,212.89S438.8,454.35,320,454.35z"/>
</svg>