<svg xmlns="http://www.w3.org/2000/svg"
	xmlns:xlink="http://www.w3.org/1999/xlink" version="1.1" id="Layer_1" x="0px" y="0px" style="enable-background:new 0 0 640 480;" xml:space="preserve" viewBox="82.98 5.43 474.04 469.14">
	<style type="text/css">
		.st0{fill:url(#SVGID_1_);}
		.st1{fill:url(#SVGID_00000069383762012617238560000015429337483322822288_);}
		.st2{fill:url(#SVGID_00000084501187388446502860000014696512798555858609_);}
		.st3{fill:url(#SVGID_00000044863737146048441800000018419272959871680407_);}
		.st4{fill:url(#SVGID_00000088124060145592397920000009007573375980189586_);}
		.st5{fill:url(#SVGID_00000018233302013094699540000001761326035281796742_);}
		.st6{fill:url(#SVGID_00000057109067468114091120000008145973688711168387_);}
		.st7{fill:url(#SVGID_00000061440577152752320800000012400104428761856428_);}
		.st8{fill:url(#SVGID_00000116223104362901408170000014456074933665433481_);}
		.st9{fill:url(#SVGID_00000149379277123692202020000008292331336898192013_);}
		.st10{fill:url(#SVGID_00000139279927848193467020000003968445227192733095_);}
	</style>
	<linearGradient id="SVGID_1_" gradientUnits="userSpaceOnUse" x1="141.5238" y1="237.7569" x2="367.3958" y2="237.7569">
		<stop offset="0" style="stop-color:#B67A36"/>
		<stop offset="1" style="stop-color:#E4A731"/>
	</linearGradient>
	<path class="st0" d="M236.32,237.76c0-81.31,55.52-149.77,131.08-170.32c-15.09-4.1-30.98-6.31-47.4-6.31  c-98.57,0-178.48,79.08-178.48,176.63S221.43,414.39,320,414.39c16.41,0,32.3-2.2,47.4-6.31  C291.83,387.53,236.32,319.07,236.32,237.76z"/>
	<linearGradient id="SVGID_00000037663043197863380730000004475986029775746232_" gradientUnits="userSpaceOnUse" x1="82.9769" y1="240" x2="557.0231" y2="240">
		<stop offset="7.458905e-08" style="stop-color:#B87D37"/>
		<stop offset="1" style="stop-color:#E1A32F"/>
	</linearGradient>
	<path style="fill:url(#SVGID_00000037663043197863380730000004475986029775746232_);" d="M320,5.43  C189.1,5.43,82.98,110.45,82.98,240S189.1,474.57,320,474.57S557.02,369.55,557.02,240S450.9,5.43,320,5.43z M320,442.97  c-113.96,0-206.35-91.43-206.35-204.21S206.04,34.54,320,34.54s206.35,91.43,206.35,204.21S433.96,442.97,320,442.97z"/>
	<g>

		<linearGradient id="SVGID_00000021087213293589975360000012742801080036543619_" gradientUnits="userSpaceOnUse" x1="388.3405" y1="203.3869" x2="466.4357" y2="203.3869" gradientTransform="matrix(1 0 0 1 -1.0229 -1.3528)">
			<stop offset="0" style="stop-color:#B67A36"/>
			<stop offset="1" style="stop-color:#E4A731"/>
		</linearGradient>
		<path style="fill:url(#SVGID_00000021087213293589975360000012742801080036543619_);" d="M464.7,210.62L388.79,223   c-0.81,0.13-1.47-0.22-1.47-0.79v-40.15c0-0.57,0.66-1.03,1.47-1.03l75.91,0.18c0.4,0,0.71,0.32,0.71,0.72v27.86   C465.41,210.19,465.09,210.56,464.7,210.62z"/>

		<linearGradient id="SVGID_00000006707348881299808650000000985055126860973457_" gradientUnits="userSpaceOnUse" x1="469.9126" y1="196.7734" x2="486.5735" y2="196.7734" gradientTransform="matrix(1 0 0 1 -1.0229 -1.3528)">
			<stop offset="0" style="stop-color:#B67A36"/>
			<stop offset="1" style="stop-color:#E4A731"/>
		</linearGradient>
		<path style="fill:url(#SVGID_00000006707348881299808650000000985055126860973457_);" d="M485.33,209.77l-16.23,0.01   c-0.12,0-0.22-0.31-0.22-0.7v-27.19c0-0.38,0.1-0.69,0.22-0.69l16.12-0.15c0.12,0,0.22,0.31,0.22,0.69l0.11,27.32   C485.55,209.46,485.46,209.77,485.33,209.77z"/>

		<linearGradient id="SVGID_00000005228501019370530780000004771308591809815973_" gradientUnits="userSpaceOnUse" x1="469.9126" y1="230.6221" x2="486.7708" y2="230.6221" gradientTransform="matrix(1 0 0 1 -1.0229 -1.3528)">
			<stop offset="0" style="stop-color:#B67A36"/>
			<stop offset="1" style="stop-color:#E4A731"/>
		</linearGradient>
		<path style="fill:url(#SVGID_00000005228501019370530780000004771308591809815973_);" d="M485.53,243.55l-16.42,0.01   c-0.12,0-0.22-0.31-0.22-0.7v-27.19c0-0.38,0.1-0.7,0.22-0.7l16.41,0.07c0.12,0,0.22,0.31,0.22,0.7l0.01,27.11   C485.75,243.23,485.65,243.55,485.53,243.55z"/>

		<linearGradient id="SVGID_00000173152706613127436460000002097442127853624500_" gradientUnits="userSpaceOnUse" x1="469.9126" y1="264.3224" x2="486.5735" y2="264.3224" gradientTransform="matrix(1 0 0 1 -1.0229 -1.3528)">
			<stop offset="0" style="stop-color:#B67A36"/>
			<stop offset="1" style="stop-color:#E4A731"/>
		</linearGradient>
		<path style="fill:url(#SVGID_00000173152706613127436460000002097442127853624500_);" d="M485.33,277.32l-16.23,0.02   c-0.12,0-0.22-0.31-0.22-0.7v-27.19c0-0.38,0.1-0.69,0.22-0.69l16.12-0.15c0.12,0,0.22,0.31,0.22,0.69l0.11,27.32   C485.55,277,485.46,277.32,485.33,277.32z"/>

		<linearGradient id="SVGID_00000078003649200125467330000002231356648614078370_" gradientUnits="userSpaceOnUse" x1="388.3405" y1="244.8979" x2="466.4361" y2="244.8979" gradientTransform="matrix(1 0 0 1 -1.0229 -1.3528)">
			<stop offset="0" style="stop-color:#B67A36"/>
			<stop offset="1" style="stop-color:#E4A731"/>
		</linearGradient>
		<path style="fill:url(#SVGID_00000078003649200125467330000002231356648614078370_);" d="M464.7,244.97l-75.92,26.57   c-0.81,0.28-1.46,0.05-1.46-0.52v-40.15c0-0.57,0.66-1.15,1.46-1.3l75.92-14.13c0.4-0.07,0.72,0.19,0.72,0.58l0,27.98   C465.41,244.4,465.09,244.83,464.7,244.97z"/>

		<linearGradient id="SVGID_00000049944227215276136100000008621853286559109011_" gradientUnits="userSpaceOnUse" x1="388.3405" y1="285.8953" x2="466.4361" y2="285.8953" gradientTransform="matrix(1 0 0 1 -1.0229 -1.3528)">
			<stop offset="0" style="stop-color:#B67A36"/>
			<stop offset="1" style="stop-color:#E4A731"/>
		</linearGradient>
		<path style="fill:url(#SVGID_00000049944227215276136100000008621853286559109011_);" d="M464.73,277.98l-75.88,41.01   c-0.84,0.46-1.53,0.37-1.53-0.2v-40.15c0-0.57,0.69-1.28,1.53-1.58l75.88-27.21c0.38-0.14,0.68,0.06,0.68,0.44v26.64   C465.41,277.31,465.11,277.78,464.73,277.98z"/>

		<linearGradient id="SVGID_00000143586104678555974140000008911274651525480345_" gradientUnits="userSpaceOnUse" x1="309.5682" y1="202.0341" x2="382.7247" y2="202.0341">
			<stop offset="0" style="stop-color:#B67A36"/>
			<stop offset="1" style="stop-color:#E4A731"/>
		</linearGradient>
		<path style="fill:url(#SVGID_00000143586104678555974140000008911274651525480345_);" d="M382.63,223.03h-72.98   c-0.05,0-0.09-0.04-0.09-0.09v-41.81c0-0.05,0.04-0.09,0.09-0.09h72.98c0.05,0,0.09,0.04,0.09,0.09v41.81   C382.72,222.99,382.68,223.03,382.63,223.03z"/>

		<linearGradient id="SVGID_00000070808825443250738670000013171032778883597718_" gradientUnits="userSpaceOnUse" x1="309.5682" y1="251.0619" x2="382.7247" y2="251.0619">
			<stop offset="0" style="stop-color:#B67A36"/>
			<stop offset="1" style="stop-color:#E4A731"/>
		</linearGradient>
		<path style="fill:url(#SVGID_00000070808825443250738670000013171032778883597718_);" d="M382.63,272.06h-72.98   c-0.05,0-0.09-0.04-0.09-0.09v-41.81c0-0.05,0.04-0.09,0.09-0.09h72.98c0.05,0,0.09,0.04,0.09,0.09v41.81   C382.72,272.02,382.68,272.06,382.63,272.06z"/>

		<linearGradient id="SVGID_00000042716762808989055050000017794996929166545834_" gradientUnits="userSpaceOnUse" x1="309.5682" y1="298.3306" x2="382.7247" y2="298.3306">
			<stop offset="0" style="stop-color:#B67A36"/>
			<stop offset="1" style="stop-color:#E4A731"/>
		</linearGradient>
		<path style="fill:url(#SVGID_00000042716762808989055050000017794996929166545834_);" d="M382.63,319.33h-72.98   c-0.05,0-0.09-0.04-0.09-0.09v-41.81c0-0.05,0.04-0.09,0.09-0.09h72.98c0.05,0,0.09,0.04,0.09,0.09v41.81   C382.72,319.29,382.68,319.33,382.63,319.33z"/>
	</g>
</svg>