<?xml version="1.0" standalone="no"?>
<!DOCTYPE svg PUBLIC "-//W3C//DTD SVG 20010904//EN"
 "http://www.w3.org/TR/2001/REC-SVG-20010904/DTD/svg10.dtd">
<svg version="1.0" xmlns="http://www.w3.org/2000/svg"
 width="918.000000pt" height="918.000000pt" viewBox="0 0 918.000000 918.000000"
 preserveAspectRatio="xMidYMid meet">
<metadata>
Created by potrace 1.14, written by Peter Selinger 2001-2017
</metadata>
<g transform="translate(0.000000,918.000000) scale(0.100000,-0.100000)"
fill="#000000" stroke="none">
<path d="M4339 9126 c-2 -2 -51 -7 -109 -11 -104 -8 -123 -9 -210 -20 -25 -3
-58 -8 -75 -9 -47 -6 -102 -15 -215 -37 -58 -11 -116 -22 -130 -24 -14 -2 -32
-6 -40 -9 -8 -3 -26 -8 -40 -10 -14 -3 -74 -19 -135 -36 -60 -16 -121 -32
-133 -35 -13 -3 -43 -12 -65 -21 -23 -8 -69 -23 -102 -34 -33 -11 -111 -39
-173 -64 -62 -24 -112 -41 -112 -37 0 3 -4 1 -8 -4 -4 -6 -43 -26 -87 -45 -44
-19 -99 -44 -122 -57 -23 -13 -49 -23 -57 -23 -9 0 -16 -4 -16 -8 0 -5 -21
-18 -47 -30 -27 -12 -79 -40 -118 -62 -38 -22 -81 -45 -95 -51 -13 -6 -27 -14
-30 -18 -3 -4 -23 -18 -45 -31 -83 -50 -180 -114 -183 -122 -2 -4 -8 -8 -13
-8 -11 0 -229 -158 -283 -205 -6 -5 -51 -44 -101 -85 -116 -96 -419 -399 -515
-515 -88 -106 -92 -110 -105 -127 -91 -116 -115 -149 -115 -157 0 -5 -4 -11
-8 -13 -5 -1 -33 -39 -62 -83 -30 -44 -57 -82 -60 -85 -3 -3 -11 -16 -19 -30
-8 -14 -43 -72 -78 -130 -35 -58 -78 -134 -96 -170 -17 -36 -35 -67 -38 -70
-23 -20 -181 -388 -244 -570 -26 -74 -50 -142 -53 -150 -3 -8 -6 -21 -8 -28
-1 -8 -6 -21 -10 -30 -4 -9 -8 -24 -9 -32 -1 -8 -17 -68 -34 -132 -18 -64 -33
-130 -35 -145 -2 -16 -9 -46 -14 -68 -6 -22 -13 -56 -16 -75 -3 -19 -8 -46
-11 -60 -3 -14 -8 -50 -11 -80 -3 -30 -7 -57 -9 -60 -2 -3 -6 -33 -10 -65 -3
-33 -8 -73 -10 -90 -27 -199 -27 -722 0 -945 2 -19 6 -57 9 -85 3 -27 8 -61
10 -75 3 -14 7 -43 11 -65 12 -84 26 -161 35 -200 5 -22 9 -42 10 -45 17 -93
52 -230 88 -345 8 -27 15 -52 15 -55 -1 -8 47 -144 57 -162 6 -10 10 -26 10
-36 0 -10 3 -22 8 -26 4 -4 7 -11 8 -14 0 -4 4 -16 9 -27 5 -11 23 -56 40
-100 72 -178 254 -544 277 -553 4 -2 6 -8 2 -13 -3 -5 0 -9 5 -9 6 0 11 -4 11
-9 0 -19 210 -338 277 -421 6 -8 42 -53 80 -100 37 -47 72 -90 78 -96 5 -7 30
-36 55 -65 138 -166 459 -466 655 -614 44 -33 82 -62 85 -65 3 -3 32 -23 65
-45 33 -22 62 -42 65 -45 15 -16 148 -100 158 -100 7 0 12 -4 12 -10 0 -5 7
-10 15 -10 8 0 15 -4 15 -10 0 -5 5 -10 10 -10 6 0 29 -12 53 -27 145 -92 632
-323 732 -348 11 -2 33 -10 85 -30 40 -15 105 -36 123 -39 7 -1 17 -4 22 -8
11 -7 269 -78 300 -82 11 -2 20 -4 20 -6 0 -1 11 -3 25 -5 14 -1 57 -10 95
-19 39 -9 86 -19 105 -22 19 -3 60 -9 90 -14 68 -12 136 -22 175 -25 17 -2 30
-4 30 -4 0 -1 32 -4 70 -7 84 -6 97 -7 112 -17 6 -4 14 -3 17 1 3 5 27 6 53 1
50 -7 591 -4 653 4 19 3 67 8 105 11 39 4 81 8 95 10 43 7 124 19 140 21 17 2
112 18 120 20 3 1 39 7 80 15 82 15 88 16 95 20 3 1 14 4 25 5 11 1 22 4 25 5
3 1 8 3 13 4 30 8 70 17 87 21 11 2 52 13 90 25 39 11 79 22 90 25 11 2 79 24
150 50 72 25 137 47 145 49 78 22 467 202 605 280 22 12 63 35 90 51 28 15 81
47 118 71 37 24 72 44 76 44 5 0 11 3 13 8 2 4 39 31 83 61 44 30 92 64 107
75 15 12 48 37 75 56 26 19 50 37 53 40 3 3 25 21 50 40 24 19 52 42 61 50 8
8 44 40 80 70 81 69 346 333 427 426 67 76 187 226 212 264 8 12 21 29 29 37
8 8 25 31 39 51 14 20 43 64 66 97 50 72 138 214 193 310 69 120 223 433 223
453 0 4 6 18 13 32 12 22 69 165 73 180 0 3 4 12 7 20 11 25 79 234 83 254 2
10 8 33 13 50 15 46 59 217 65 251 3 17 7 41 10 55 12 54 17 76 21 100 3 14 7
36 10 50 2 14 7 45 10 70 4 25 8 56 10 70 3 22 9 71 21 175 20 176 26 630 11
800 -13 146 -17 190 -23 225 -3 19 -8 51 -10 70 -13 94 -20 135 -40 235 -19
93 -23 113 -35 160 -5 22 -11 49 -13 60 -6 27 -55 206 -63 225 -3 8 -7 20 -9
25 -5 22 -54 165 -82 240 -40 106 -55 142 -116 278 -14 32 -26 62 -26 67 0 6
-4 10 -10 10 -5 0 -10 6 -10 13 0 10 -87 182 -127 252 -183 315 -361 565 -573
800 -70 79 -329 334 -399 395 -35 30 -68 60 -75 65 -20 18 -72 59 -106 85 -18
14 -38 30 -44 35 -24 22 -157 116 -261 185 -60 40 -122 81 -137 91 -15 11 -32
19 -38 19 -5 0 -10 4 -10 8 0 4 -12 13 -27 19 -16 7 -53 26 -83 44 -148 85
-339 177 -537 258 -98 40 -405 145 -453 155 -14 3 -64 16 -112 30 -47 13 -89
22 -92 18 -3 -3 -6 -1 -6 4 0 5 -10 9 -22 10 -13 1 -57 9 -98 18 -41 9 -86 19
-100 21 -14 2 -52 8 -85 14 -33 6 -86 14 -117 17 -32 3 -68 7 -80 10 -13 2
-48 7 -78 9 -30 3 -73 8 -95 11 -47 5 -631 15 -636 10z m586 -240 c39 -4 90
-9 115 -12 25 -3 61 -7 80 -9 105 -11 175 -21 175 -25 0 -1 11 -3 25 -5 39 -5
101 -16 150 -27 25 -5 56 -12 70 -14 20 -4 91 -22 195 -48 100 -26 408 -129
480 -161 17 -7 82 -36 145 -64 63 -28 158 -73 210 -101 52 -28 107 -56 123
-63 15 -6 27 -15 27 -19 0 -4 5 -8 11 -8 14 0 156 -86 264 -159 124 -85 180
-124 185 -131 3 -3 21 -17 40 -30 19 -13 42 -29 50 -37 8 -7 38 -31 65 -54 28
-23 72 -60 99 -83 105 -87 379 -367 476 -486 25 -30 49 -60 55 -66 5 -6 19
-23 30 -38 11 -16 25 -33 30 -40 13 -14 102 -138 140 -196 17 -25 35 -51 42
-58 6 -6 15 -21 18 -32 3 -11 11 -20 16 -20 5 0 9 -5 9 -11 0 -6 13 -30 30
-54 17 -24 30 -46 30 -48 0 -2 22 -42 48 -88 46 -79 134 -256 182 -363 30 -68
114 -285 120 -311 1 -5 6 -18 12 -28 5 -10 11 -26 13 -35 3 -9 16 -55 30 -102
27 -91 71 -259 79 -300 2 -14 7 -32 10 -40 3 -8 7 -28 9 -45 3 -16 10 -57 15
-90 6 -33 14 -78 17 -100 3 -23 7 -52 10 -65 3 -13 7 -54 11 -90 3 -36 8 -74
10 -85 10 -49 18 -266 17 -440 -1 -158 -8 -320 -13 -320 -1 0 -3 -25 -5 -55
-2 -30 -6 -70 -9 -87 -4 -18 -8 -54 -11 -80 -8 -78 -14 -111 -50 -284 -45
-209 -48 -225 -58 -249 -3 -8 -11 -35 -17 -60 -66 -258 -230 -644 -398 -935
-63 -110 -207 -332 -249 -385 -6 -8 -46 -60 -89 -115 -42 -55 -81 -102 -85
-103 -5 -2 -9 -7 -9 -12 0 -21 -346 -375 -469 -480 -35 -30 -69 -60 -75 -65
-6 -6 -31 -26 -56 -45 -25 -19 -46 -38 -48 -42 -2 -5 -10 -8 -17 -8 -7 0 -15
-4 -17 -8 -4 -11 -108 -88 -198 -147 -41 -28 -77 -53 -80 -56 -3 -3 -25 -16
-50 -30 -25 -13 -47 -27 -50 -30 -8 -9 -243 -140 -255 -142 -5 -1 -12 -5 -15
-8 -12 -14 -385 -182 -430 -194 -27 -6 -87 -29 -95 -35 -5 -5 -13 -8 -18 -8
-4 0 -42 -12 -85 -26 -83 -28 -242 -74 -282 -82 -14 -3 -33 -7 -42 -10 -23 -7
-59 -15 -83 -19 -11 -1 -38 -7 -60 -13 -22 -6 -59 -13 -83 -16 -24 -3 -46 -7
-50 -10 -4 -2 -34 -7 -67 -11 -32 -3 -62 -8 -66 -11 -4 -2 -36 -7 -71 -10 -89
-8 -133 -12 -133 -14 0 -4 -405 -22 -470 -21 -112 2 -414 24 -492 36 -22 3
-58 8 -79 10 -22 3 -61 9 -89 15 -27 5 -63 12 -80 15 -51 9 -78 14 -150 30
-38 9 -81 18 -95 21 -14 3 -34 8 -45 11 -11 4 -24 8 -30 9 -97 23 -364 110
-432 140 -17 8 -33 14 -36 14 -3 0 -18 5 -34 11 -15 6 -28 9 -28 8 0 -2 -13 4
-30 14 -27 14 -167 78 -172 78 -11 0 -299 154 -365 196 -21 12 -40 23 -42 23
-9 0 -221 144 -224 152 -2 4 -8 8 -13 8 -9 0 -219 158 -274 206 -16 14 -48 40
-69 57 -56 45 -362 350 -423 422 -28 33 -78 94 -112 135 -33 41 -67 82 -75 92
-13 14 -105 146 -131 186 -14 23 -28 40 -45 59 -8 9 -14 18 -12 20 1 2 -13 27
-31 56 -18 28 -42 68 -53 87 -10 19 -21 37 -24 40 -15 14 -220 420 -220 436 0
2 -8 23 -19 47 -49 112 -148 391 -166 467 -2 8 -15 62 -30 120 -15 58 -29 116
-32 130 -2 14 -8 41 -12 60 -5 19 -9 42 -10 50 0 8 -7 51 -16 95 -9 44 -18 98
-19 120 -2 22 -7 60 -11 85 -4 25 -9 61 -10 80 -28 321 -24 676 10 930 4 25 8
60 11 79 6 45 23 145 39 231 14 74 54 246 63 270 3 8 5 18 4 22 -1 4 3 20 10
35 6 15 12 33 13 38 2 8 25 89 30 105 1 3 5 12 8 20 3 8 16 44 28 80 21 65 79
214 118 303 11 26 21 51 22 55 9 31 170 332 233 435 22 37 46 76 51 85 31 51
79 120 102 147 7 7 13 17 13 20 0 7 169 229 206 271 11 12 39 46 64 75 87 103
346 357 470 460 157 131 245 199 258 199 6 0 12 4 14 8 2 5 46 37 98 72 52 35
113 75 135 90 22 15 76 46 120 70 44 24 83 48 86 52 3 5 12 10 20 11 8 2 30
12 49 23 19 11 58 30 85 43 28 13 88 42 135 64 47 22 89 40 94 38 4 -1 13 3
20 8 24 21 316 125 461 166 33 9 71 21 85 26 27 9 280 66 337 75 19 3 44 7 53
9 10 2 40 7 67 11 26 3 57 8 68 11 11 2 45 6 75 9 30 3 69 7 85 9 17 2 75 6
130 10 55 4 101 8 103 10 5 5 481 -3 547 -9z"/>
<path d="M4497 8564 c-1 -1 -54 -5 -117 -8 -141 -8 -219 -14 -245 -20 -11 -2
-49 -7 -85 -11 -36 -3 -81 -10 -100 -16 -20 -5 -54 -11 -75 -13 -22 -3 -47 -7
-55 -9 -8 -2 -42 -9 -75 -16 -110 -23 -364 -94 -425 -118 -8 -3 -24 -8 -34
-10 -11 -2 -25 -8 -31 -13 -6 -5 -20 -11 -31 -13 -10 -2 -32 -9 -47 -15 -16
-7 -52 -22 -80 -33 -326 -134 -701 -353 -957 -559 -168 -136 -425 -382 -540
-519 -25 -29 -50 -58 -55 -65 -6 -6 -24 -29 -40 -51 -17 -22 -32 -42 -36 -45
-6 -5 -113 -152 -136 -187 -61 -91 -103 -155 -103 -158 0 -3 -20 -38 -45 -78
-25 -41 -45 -79 -45 -85 0 -6 -3 -12 -7 -14 -9 -4 -131 -246 -135 -268 -2 -8
-5 -17 -8 -20 -10 -9 -85 -204 -83 -212 2 -4 -1 -8 -5 -8 -5 0 -9 -6 -9 -12
-1 -7 -13 -44 -27 -83 -14 -38 -23 -71 -21 -74 3 -2 1 -9 -4 -15 -9 -11 -65
-206 -75 -258 -2 -15 -7 -31 -9 -35 -3 -5 -8 -30 -11 -57 -4 -27 -9 -52 -11
-56 -2 -3 -6 -26 -10 -50 -3 -25 -8 -52 -10 -60 -2 -8 -6 -31 -9 -50 -2 -19
-7 -55 -11 -80 -34 -249 -39 -693 -10 -920 19 -146 23 -173 31 -220 3 -19 7
-42 8 -50 2 -8 9 -42 16 -75 8 -33 14 -64 15 -70 3 -30 18 -93 26 -115 5 -14
11 -36 14 -49 8 -41 54 -193 81 -266 14 -39 27 -77 29 -85 2 -8 11 -33 21 -55
10 -22 18 -42 19 -45 1 -3 9 -22 18 -44 9 -21 17 -40 17 -43 0 -10 134 -280
151 -304 10 -14 16 -28 13 -31 -2 -3 2 -11 11 -18 8 -7 15 -17 15 -22 0 -6 14
-30 30 -55 17 -24 30 -46 30 -49 0 -8 162 -247 182 -268 10 -11 18 -23 18 -27
0 -4 6 -14 13 -21 7 -7 39 -47 72 -88 144 -182 352 -395 524 -539 35 -29 70
-58 77 -64 22 -19 37 -31 74 -57 19 -13 37 -27 40 -30 11 -15 259 -182 315
-214 17 -9 44 -25 60 -35 101 -60 368 -196 425 -216 17 -6 49 -19 77 -31 42
-19 223 -85 244 -89 8 -2 32 -10 52 -19 20 -8 37 -13 37 -11 0 2 17 -2 39 -10
21 -7 79 -23 127 -35 49 -12 96 -24 104 -27 8 -3 24 -7 35 -8 11 -2 72 -13
135 -25 117 -22 152 -27 224 -35 23 -2 66 -7 96 -11 30 -3 78 -7 105 -8 28 -1
55 -4 60 -7 14 -7 402 -3 520 6 140 10 170 13 170 15 0 1 16 3 35 5 42 3 116
13 150 20 14 3 52 10 85 15 33 6 80 15 105 20 25 6 55 13 68 15 31 7 52 12 89
24 17 5 35 6 39 3 4 -4 5 -1 2 7 -2 8 -11 15 -19 17 -24 4 -182 51 -224 67
-22 9 -76 29 -120 46 -215 81 -482 214 -653 324 -40 26 -77 47 -81 47 -5 0
-11 3 -13 8 -1 4 -23 20 -48 36 -47 30 -220 157 -255 187 -11 10 -56 48 -100
85 -82 69 -201 181 -261 244 -147 156 -169 180 -225 250 -36 45 -148 194 -181
240 -59 84 -178 277 -178 290 0 5 -3 10 -7 10 -5 0 -13 10 -19 23 -6 12 -42
83 -80 158 -38 75 -70 141 -71 145 -1 5 -21 52 -44 104 -37 85 -151 415 -163
473 -5 24 -13 58 -21 85 -13 47 -65 313 -71 357 -3 28 -7 61 -9 75 -6 41 -18
173 -18 203 0 15 -4 27 -8 27 -5 0 -5 10 0 22 4 12 5 38 1 57 -7 42 -4 355 4
456 8 93 15 161 21 210 3 22 7 60 10 85 3 25 15 89 26 143 11 54 17 102 14
107 -3 4 -2 10 2 12 7 3 73 241 77 278 1 9 5 20 8 25 3 6 13 35 23 65 20 64
71 202 90 245 7 17 25 59 40 95 28 68 116 246 155 315 55 98 77 135 124 210
28 44 54 82 58 83 5 2 8 8 8 14 0 6 16 30 35 53 19 23 32 45 29 48 -3 3 3 12
15 19 12 7 21 16 21 20 0 4 6 16 14 25 8 10 49 61 91 113 42 52 81 97 86 98 5
2 9 10 9 18 0 8 7 14 15 14 8 0 15 5 15 11 0 7 69 80 154 163 161 158 168 165
256 236 30 25 57 48 60 51 3 3 46 35 95 72 50 37 95 70 100 74 6 5 35 24 65
43 30 19 57 37 60 40 10 11 228 140 238 140 5 0 15 7 22 15 7 9 15 13 18 11 3
-3 17 2 31 12 14 9 53 30 86 46 33 15 67 32 75 37 8 5 22 12 30 15 63 24 96
40 102 49 4 5 8 7 8 4 0 -4 33 7 73 23 39 17 151 56 247 89 96 32 169 59 163
60 -7 1 -16 2 -20 4 -5 1 -26 5 -48 10 -56 13 -55 12 -57 15 -2 1 -12 3 -23 5
-25 5 -87 17 -100 21 -5 1 -23 5 -40 8 -16 3 -41 8 -55 11 -14 3 -43 7 -65 10
-22 3 -53 8 -70 11 -16 3 -50 7 -75 9 -25 2 -67 7 -95 9 -106 12 -480 26 -488
20z"/>
<path d="M4389 6049 c-5 -3 -8 -187 -7 -445 l3 -439 810 -1 c446 -1 817 2 825
7 12 6 14 70 15 443 0 284 -3 436 -10 437 -43 4 -1629 3 -1636 -2z"/>
<path d="M6172 6049 c-16 -6 -17 -41 -16 -435 1 -236 2 -433 3 -438 1 -8 44
-5 121 8 14 3 42 7 63 10 20 3 54 9 75 13 20 3 52 7 69 7 18 1 33 4 33 7 0 3
6 6 13 6 12 0 73 10 112 17 19 3 75 12 135 21 14 2 40 7 58 10 78 13 224 37
247 40 11 2 38 6 60 9 36 6 80 13 125 22 8 2 34 6 58 9 24 3 66 10 95 16 29 5
70 12 92 15 42 5 73 10 128 20 17 3 43 8 57 9 50 7 85 16 94 25 11 11 13 111
2 128 -4 7 -4 17 0 24 11 17 12 78 2 84 -5 3 -6 10 -2 15 9 16 11 110 2 115
-5 3 -5 10 -1 17 10 16 10 58 1 63 -5 3 -6 10 -2 15 5 9 7 55 5 121 l-1 26
-137 1 c-517 5 -1477 5 -1491 0z"/>
<path d="M7935 6050 l-60 -5 0 -297 c-1 -293 0 -298 20 -299 21 -1 303 0 320
0 12 1 13 586 2 597 -8 8 -203 11 -282 4z"/>
<path d="M7990 5343 c0 -5 -26 -8 -58 -7 l-57 2 1 -297 c1 -163 2 -298 3 -301
1 -5 315 -5 344 -1 4 0 6 135 5 299 l-3 297 -105 0 c-58 1 -111 4 -118 9 -6 4
-12 3 -12 -1z"/>
<path d="M7779 5326 c-2 -2 -26 -7 -54 -11 -79 -10 -92 -13 -112 -19 -25 -8
-94 -19 -120 -20 -13 -1 -23 -4 -23 -8 0 -3 -8 -5 -17 -3 -10 1 -22 0 -28 -3
-5 -3 -16 -7 -25 -8 -27 -2 -129 -20 -167 -29 -13 -3 -31 -7 -40 -9 -19 -4
-94 -17 -128 -22 -11 -2 -31 -6 -45 -9 -14 -3 -38 -8 -55 -10 -16 -3 -39 -7
-50 -9 -11 -2 -58 -11 -105 -20 -47 -9 -96 -18 -110 -21 -31 -7 -84 -15 -119
-20 -14 -2 -26 -4 -26 -5 0 -2 -146 -30 -235 -45 -14 -2 -36 -7 -50 -10 -14
-3 -41 -8 -60 -11 -19 -3 -39 -10 -45 -15 -9 -9 -16 -838 -7 -866 4 -12 37 -8
82 10 30 12 135 48 151 52 8 2 32 10 52 19 20 8 37 12 37 9 0 -3 6 -1 13 4 6
6 68 30 137 53 69 24 175 61 235 82 61 22 126 44 145 50 19 5 41 15 49 22 8 6
16 10 18 9 1 -2 4 -3 6 -2 1 0 9 2 17 4 19 4 248 84 275 95 11 5 74 28 140 50
218 75 240 83 251 92 6 4 13 5 17 2 3 -3 8 4 12 17 10 31 12 120 3 126 -5 2
-5 9 -1 16 10 16 10 58 1 63 -5 3 -6 10 -2 15 9 15 9 132 0 147 -4 6 -4 17 0
24 10 16 12 78 2 84 -4 3 -4 15 0 27 4 12 7 29 6 37 -1 8 -2 27 -3 43 -1 24
-10 34 -22 23z"/>
<path d="M4402 5022 l-22 -3 2 -442 3 -442 825 0 824 0 1 433 c0 239 -3 439
-7 445 -5 9 -221 12 -805 12 -439 0 -808 -1 -821 -3z"/>
<path d="M7877 4615 c-2 -5 -3 -140 -3 -300 l1 -290 170 -1 c94 -1 172 2 175
6 4 7 5 536 1 586 -1 15 -339 14 -344 -1z"/>
<path d="M7725 4579 c-27 -11 -57 -22 -65 -24 -8 -1 -73 -24 -145 -50 -71 -27
-136 -48 -142 -48 -7 0 -13 -3 -13 -7 0 -4 -6 -7 -12 -7 -23 -2 -143 -48 -150
-58 -4 -5 -8 -7 -8 -3 0 5 -24 -1 -52 -12 -29 -12 -80 -30 -113 -41 -33 -11
-67 -23 -75 -26 -8 -3 -17 -7 -20 -7 -3 -1 -9 -4 -15 -7 -8 -5 -75 -29 -95
-34 -3 -1 -12 -4 -20 -8 -59 -22 -197 -68 -204 -67 -5 1 -12 -2 -15 -7 -3 -4
-24 -14 -46 -22 -33 -11 -86 -29 -225 -79 -8 -3 -17 -6 -20 -6 -33 -8 -114
-44 -123 -55 -17 -20 -17 -862 0 -868 6 -3 40 11 75 30 35 19 113 60 173 93
61 32 112 60 115 63 3 3 28 17 55 30 28 14 53 29 57 35 4 6 8 7 8 3 0 -4 19 3
43 17 60 35 124 71 177 99 109 56 155 81 160 86 3 4 21 14 40 23 33 16 89 47
275 147 44 24 86 48 93 54 6 5 12 6 12 1 0 -5 4 -4 8 1 4 6 32 23 62 39 54 28
129 69 200 109 19 10 40 23 46 28 6 5 13 6 16 3 17 -16 30 98 14 124 -4 7 -4
17 0 24 11 17 12 78 2 84 -5 3 -6 10 -2 15 9 16 11 110 2 115 -5 3 -5 10 -1
17 9 15 10 57 1 63 -4 3 -5 11 -2 19 3 8 7 41 7 72 2 68 -5 72 -78 42z"/>
<path d="M4556 4023 c-4 -5 -44 -8 -89 -8 l-82 0 -3 -442 c-2 -351 0 -443 10
-444 7 -1 377 -2 821 -3 523 -1 811 2 815 9 3 5 6 201 7 434 0 318 -3 428 -12
437 -8 7 -41 11 -93 9 -44 -1 -80 2 -80 7 0 5 -6 6 -12 1 -17 -10 -228 -11
-228 0 0 4 -6 5 -12 0 -17 -10 -228 -11 -228 0 0 4 -6 5 -12 0 -17 -10 -308
-10 -308 0 0 5 -6 5 -12 0 -17 -10 -228 -11 -228 0 0 4 -6 5 -12 0 -17 -10
-221 -11 -229 -1 -3 5 -9 5 -13 1z"/>
</g>
</svg>
