<?xml version="1.0" standalone="no"?>
<!DOCTYPE svg PUBLIC "-//W3C//DTD SVG 20010904//EN"
 "http://www.w3.org/TR/2001/REC-SVG-20010904/DTD/svg10.dtd">
<svg version="1.0" xmlns="http://www.w3.org/2000/svg"
 width="487.000000pt" height="487.000000pt" viewBox="0 0 487.000000 487.000000"
 preserveAspectRatio="xMidYMid meet">
<metadata>
Created by potrace 1.14, written by Peter Selinger 2001-2017
</metadata>
<g transform="translate(0.000000,487.000000) scale(0.100000,-0.100000)"
fill="#000000" stroke="none">
<path d="M2460 4852 c0 -4 -30 -8 -67 -10 -85 -3 -115 -6 -128 -13 -5 -3 -22
-5 -37 -4 -16 0 -28 -2 -28 -5 0 -3 -17 -6 -38 -6 -37 -2 -63 -7 -105 -20 -12
-4 -29 -8 -37 -9 -46 -6 -100 -18 -100 -24 0 -3 -10 -7 -23 -7 -33 -3 -51 -8
-59 -18 -3 -5 -17 -10 -30 -12 -12 -1 -36 -8 -53 -15 -16 -7 -33 -13 -37 -13
-3 -1 -10 -4 -14 -8 -4 -5 -15 -8 -24 -8 -9 0 -22 -6 -28 -12 -7 -7 -17 -13
-21 -13 -12 0 -115 -49 -122 -58 -3 -5 -8 -8 -10 -8 -11 4 -69 -22 -69 -30 0
-5 -7 -9 -15 -9 -8 0 -15 -4 -15 -9 0 -5 -8 -11 -17 -15 -18 -5 -31 -13 -88
-51 -16 -11 -33 -20 -36 -20 -6 0 -17 -9 -144 -109 -38 -31 -74 -56 -78 -56
-5 0 -5 -4 -2 -10 3 -5 1 -10 -4 -10 -6 0 -40 -28 -74 -62 -35 -35 -94 -90
-132 -123 -76 -68 -217 -205 -209 -205 3 0 -13 -18 -36 -40 -22 -21 -40 -44
-40 -50 0 -5 -7 -10 -15 -10 -8 0 -14 -3 -13 -7 3 -11 -37 -73 -74 -114 -10
-10 -18 -23 -18 -29 0 -5 -4 -10 -8 -10 -9 0 -47 -71 -44 -82 1 -5 -2 -8 -8
-8 -5 0 -19 -19 -31 -42 -12 -24 -27 -46 -33 -50 -6 -4 -7 -8 -3 -8 5 0 -1
-12 -12 -26 -12 -15 -21 -32 -21 -39 0 -6 -13 -38 -29 -71 -38 -79 -85 -199
-96 -244 -2 -8 -4 -16 -5 -17 -2 -2 -3 -6 -4 -10 -2 -5 -9 -28 -16 -53 -8 -25
-14 -49 -15 -55 0 -5 -3 -14 -6 -20 -4 -5 -5 -20 -4 -32 1 -13 -1 -23 -5 -23
-4 0 -7 -6 -7 -12 0 -7 -4 -26 -7 -43 -13 -58 -18 -90 -20 -122 0 -18 -3 -33
-6 -33 -3 0 -6 -12 -6 -27 -4 -80 -8 -109 -18 -115 -8 -5 -7 -8 2 -8 10 0 10
-5 2 -20 -6 -11 -7 -20 -2 -20 5 0 9 -7 9 -15 0 -8 -4 -12 -9 -9 -4 3 -8 1 -8
-5 0 -5 5 -13 10 -16 7 -4 6 -13 -1 -27 -6 -11 -7 -23 -3 -27 12 -8 14 -41 2
-41 -5 0 -6 -5 -3 -11 4 -6 9 -49 11 -97 3 -53 9 -89 17 -94 9 -6 9 -8 0 -8
-7 0 -10 -9 -6 -22 3 -13 6 -42 7 -65 0 -24 3 -43 6 -43 4 0 7 -10 7 -22 2
-27 32 -176 40 -198 10 -27 14 -45 14 -62 0 -10 5 -18 10 -18 6 0 7 -5 4 -10
-3 -5 -1 -10 5 -10 7 0 10 -7 7 -15 -4 -8 -2 -17 2 -19 8 -6 25 -64 22 -78 0
-5 4 -8 9 -8 5 0 9 -3 9 -7 -3 -20 2 -34 11 -28 5 3 7 0 4 -9 -3 -8 2 -25 10
-38 9 -14 13 -28 9 -31 -3 -4 -1 -7 5 -7 7 0 12 -6 12 -13 0 -21 60 -137 71
-137 6 0 7 -5 3 -11 -3 -6 -2 -14 3 -18 5 -3 20 -26 34 -51 42 -75 53 -93 71
-114 10 -10 15 -23 12 -28 -3 -4 -1 -8 5 -8 5 0 20 -17 32 -37 13 -21 33 -48
44 -59 11 -12 36 -41 55 -64 19 -23 41 -48 48 -56 7 -8 10 -14 5 -14 -4 0 4
-8 20 -18 15 -10 24 -22 20 -25 -3 -4 -1 -7 5 -7 6 0 30 -21 54 -46 24 -25 79
-75 123 -112 44 -37 82 -70 83 -74 2 -5 8 -8 13 -8 6 0 22 -11 37 -25 15 -14
33 -25 40 -25 7 0 15 -7 18 -15 4 -8 12 -15 20 -15 8 0 14 -4 14 -10 0 -5 5
-10 10 -10 12 0 71 -40 82 -55 4 -5 8 -6 8 -2 0 4 21 -4 48 -19 86 -49 192
-103 192 -97 0 3 11 -2 25 -11 13 -9 36 -17 50 -18 14 -1 25 -8 25 -16 0 -7 5
-10 10 -7 6 3 16 3 23 -2 6 -4 18 -8 25 -9 8 -2 21 -6 30 -10 20 -9 31 -12 57
-18 11 -2 20 -5 20 -7 0 -1 9 -3 20 -4 11 -2 36 -10 55 -18 19 -8 47 -14 63
-13 15 1 27 -1 27 -5 0 -3 21 -10 48 -13 26 -4 56 -10 67 -13 11 -2 30 -4 42
-4 12 0 25 -4 28 -9 4 -7 13 -7 25 0 10 6 21 6 24 2 6 -9 60 -14 196 -16 47 0
88 -5 92 -11 5 -7 8 -7 8 0 0 6 29 10 68 10 37 0 87 3 112 7 90 13 155 21 170
21 8 0 20 3 25 6 6 4 22 7 38 6 15 0 27 2 27 6 0 4 8 8 18 8 9 -1 44 7 77 16
33 9 69 17 80 19 11 2 21 5 23 6 1 1 5 3 10 5 4 1 20 7 35 13 16 7 33 10 38 6
5 -3 9 -1 9 4 0 6 14 15 30 21 17 5 30 7 30 4 0 -3 7 0 15 7 8 7 15 10 15 6 0
-3 24 7 53 23 28 15 54 29 57 29 32 9 70 28 70 35 0 4 4 6 9 3 5 -3 28 7 52
23 24 16 47 27 51 25 4 -3 8 -1 8 4 0 5 20 20 45 33 25 13 45 28 45 33 0 4 7
6 15 2 8 -3 14 0 12 7 -1 7 4 11 11 10 6 -2 12 2 12 7 0 6 5 10 10 10 11 0 16
3 64 46 16 14 46 37 67 51 22 14 39 30 39 34 0 5 6 9 13 9 7 0 18 9 25 21 8
12 19 18 28 15 8 -3 12 -2 9 4 -5 8 89 110 101 110 3 0 22 17 43 38 82 80 119
112 130 112 6 0 11 4 11 9 0 5 22 30 50 57 27 27 50 53 50 57 0 13 27 37 34
30 3 -4 6 -1 6 4 0 6 18 31 40 55 22 23 40 46 40 50 0 5 10 19 23 34 12 14 20
26 17 27 -2 1 12 20 32 41 21 22 35 43 32 48 -3 4 0 8 5 8 6 0 11 7 11 15 0 8
5 15 12 15 6 0 9 3 5 6 -3 3 14 39 39 79 24 40 44 78 44 84 0 7 5 9 12 5 6 -4
8 -3 5 3 -4 6 0 24 8 39 8 16 15 35 15 42 0 6 4 12 10 12 5 0 9 3 8 8 -1 4 9
32 22 62 14 30 24 58 22 63 -1 4 3 7 10 7 6 0 8 3 5 7 -4 3 -2 12 4 20 6 7 9
13 6 13 -4 0 1 19 9 43 9 23 18 53 20 66 3 13 10 33 16 45 6 11 13 34 15 51 4
34 11 70 13 70 1 0 3 9 5 20 2 11 7 36 10 55 12 62 14 74 19 115 13 98 19 208
19 305 0 135 -7 260 -13 260 -3 0 -5 21 -6 48 -1 26 -4 62 -8 80 -3 17 -9 47
-12 65 -3 17 -10 37 -15 43 -5 6 -6 13 -3 16 3 3 1 23 -5 44 -6 22 -13 55 -16
74 -3 19 -11 37 -16 41 -6 3 -10 10 -10 15 0 5 -5 27 -11 49 -6 22 -12 42 -12
45 -1 3 -5 11 -9 18 -5 6 -5 17 -2 22 3 6 1 10 -5 10 -6 0 -8 5 -5 10 3 6 1
10 -4 10 -6 0 -11 6 -11 13 0 8 -6 27 -14 43 -23 45 -39 88 -38 97 1 4 -3 7
-10 7 -6 0 -8 3 -5 7 4 3 -1 15 -10 26 -13 15 -14 19 -3 13 9 -4 8 -2 -2 7
-10 8 -18 17 -18 20 0 3 -16 33 -35 66 -20 33 -36 64 -36 68 0 5 -7 12 -15 16
-8 5 -12 12 -9 18 4 5 1 9 -6 9 -7 0 -10 3 -7 6 4 3 0 13 -8 22 -8 9 -48 61
-89 115 -42 54 -85 109 -98 122 -67 73 -189 194 -222 220 -21 17 -45 38 -54
48 -8 9 -20 17 -26 17 -6 0 -17 9 -25 20 -8 11 -20 20 -28 20 -7 0 -10 5 -7
10 3 6 1 10 -5 10 -6 0 -44 23 -85 50 -41 28 -79 50 -85 50 -5 0 -10 4 -10 8
0 5 -16 14 -35 22 -19 8 -35 18 -35 22 0 5 -4 7 -9 4 -5 -3 -19 2 -32 12 -32
23 -124 67 -177 84 -23 7 -42 16 -42 20 0 5 -9 8 -20 8 -11 0 -20 4 -20 8 0 5
-6 9 -12 10 -7 0 -24 3 -38 7 -14 4 -32 7 -40 8 -8 1 -21 9 -28 17 -8 8 -11
10 -7 3 4 -9 -3 -8 -21 2 -15 8 -32 11 -37 8 -5 -3 -12 -1 -16 5 -3 5 -24 13
-46 16 -64 11 -80 14 -80 16 0 1 -11 3 -25 6 -14 2 -41 6 -60 9 -19 3 -43 6
-52 6 -10 0 -18 3 -18 7 0 4 -21 8 -47 9 -208 7 -360 15 -370 18 -7 3 -13 1
-13 -3z m190 -336 c0 -5 6 -3 13 3 8 6 17 8 20 5 5 -5 57 -11 145 -17 12 0 22
-5 22 -10 0 -4 4 -6 9 -3 4 3 39 -1 77 -10 38 -8 78 -17 89 -19 11 -2 32 -8
48 -14 15 -6 27 -8 27 -5 0 3 6 2 13 -3 6 -4 14 -8 17 -8 31 -4 120 -38 120
-45 0 -6 3 -9 8 -9 17 3 72 -14 72 -23 0 -5 4 -7 8 -4 4 2 32 -9 62 -25 29
-16 59 -29 67 -29 7 0 13 -4 13 -8 0 -4 16 -14 35 -21 19 -7 35 -16 35 -20 0
-4 16 -13 35 -21 19 -7 32 -17 29 -22 -3 -4 2 -8 10 -8 9 0 16 -5 16 -11 0 -5
5 -7 10 -4 6 3 10 2 10 -2 0 -5 16 -17 35 -27 19 -11 35 -23 35 -28 0 -4 5 -8
11 -8 7 0 27 -16 45 -35 19 -18 34 -31 34 -27 0 4 7 -2 15 -12 8 -11 15 -17
15 -13 0 5 6 2 14 -5 8 -7 12 -16 9 -20 -2 -5 -1 -8 4 -8 11 0 130 -116 170
-166 17 -21 41 -50 53 -64 12 -14 29 -37 38 -52 9 -16 20 -28 24 -28 4 0 8 -5
8 -10 0 -10 8 -22 38 -55 7 -8 10 -15 6 -15 -4 0 1 -7 12 -15 10 -8 15 -15 9
-15 -7 0 -7 -3 0 -8 6 -4 19 -25 31 -47 11 -22 30 -56 42 -77 11 -20 18 -39
15 -42 -4 -3 -1 -6 5 -6 7 0 12 -6 12 -13 0 -7 9 -30 21 -51 11 -21 18 -40 15
-43 -3 -3 1 -12 9 -19 13 -13 45 -108 45 -133 0 -6 4 -11 8 -11 4 0 9 -11 10
-25 3 -35 6 -49 13 -55 4 -3 8 -21 10 -40 2 -19 5 -39 8 -45 3 -5 6 -17 8 -25
1 -8 7 -42 13 -75 6 -33 12 -84 13 -112 1 -29 4 -53 7 -53 9 0 6 -297 -2 -305
-4 -4 -3 -16 3 -26 5 -11 6 -19 2 -19 -4 0 -9 -22 -10 -50 -1 -27 -7 -59 -13
-71 -9 -16 -9 -20 0 -14 9 6 9 3 2 -11 -5 -11 -13 -37 -16 -59 -12 -72 -13
-80 -16 -82 -1 -2 -3 -6 -4 -10 -2 -5 -8 -28 -15 -53 -7 -25 -14 -50 -15 -57
-1 -7 -5 -16 -9 -19 -4 -4 -7 -14 -7 -21 0 -15 -31 -90 -55 -134 -8 -14 -11
-29 -8 -33 4 -4 3 -10 -3 -14 -6 -4 -27 -41 -47 -82 -39 -80 -129 -225 -171
-275 l-26 -30 0 38 c0 22 11 60 27 90 15 29 26 58 25 65 -2 6 2 12 9 12 6 0 9
7 5 15 -3 8 -2 15 3 15 5 0 12 10 16 22 4 13 8 25 9 28 22 63 40 116 41 120 1
3 7 25 15 50 7 25 13 49 11 54 -1 4 4 14 10 22 6 8 9 14 6 14 -3 0 -1 15 4 33
5 17 12 50 15 72 3 22 7 51 10 65 13 85 17 152 16 285 -1 134 -6 250 -12 250
-1 0 -3 16 -5 35 -2 19 -6 51 -10 70 -4 19 -9 44 -10 55 -2 11 -4 21 -5 23 -2
1 -3 10 -5 20 -1 9 -4 24 -7 32 -9 22 -32 114 -31 120 1 3 -3 11 -9 18 -6 6
-7 12 -3 12 4 0 2 7 -5 16 -8 8 -15 27 -16 42 -2 16 -14 49 -28 74 -13 25 -22
49 -19 52 4 3 0 6 -7 6 -7 0 -10 3 -7 7 4 3 -7 30 -23 60 -17 29 -27 53 -23
53 5 0 0 5 -10 11 -9 6 -15 14 -12 20 4 5 2 9 -4 9 -10 0 -27 39 -23 53 1 4
-5 10 -13 13 -8 3 -12 10 -9 15 3 5 -2 12 -10 15 -9 3 -16 11 -16 18 0 6 -14
27 -30 46 -16 19 -30 40 -30 45 0 6 -9 17 -20 25 -11 8 -20 18 -20 23 0 4 -9
18 -20 30 -11 12 -31 36 -46 52 -53 62 -96 105 -105 105 -6 0 -7 5 -4 10 3 6
-1 10 -9 10 -9 0 -16 7 -16 15 0 8 -4 15 -9 15 -5 0 -22 12 -38 28 -17 15 -49
43 -73 62 -24 19 -49 41 -57 48 -7 7 -13 10 -13 5 0 -4 -5 0 -11 10 -5 9 -15
17 -21 17 -5 0 -27 14 -48 30 -21 17 -42 30 -46 30 -5 0 -27 14 -48 30 -21 16
-42 27 -46 25 -4 -3 -13 2 -20 10 -7 8 -19 15 -27 15 -7 0 -24 9 -36 20 -12
11 -27 18 -34 16 -7 -3 -13 0 -13 7 0 7 -12 13 -26 14 -15 0 -30 6 -34 13 -4
6 -10 11 -14 10 -4 -1 -26 6 -49 16 -23 10 -44 18 -47 19 -3 1 -13 5 -23 10
-10 4 -26 9 -35 9 -10 1 -42 10 -73 19 -31 10 -66 20 -78 22 -11 3 -31 8 -43
11 -13 3 -36 7 -53 9 -16 3 -39 6 -50 9 -11 2 -26 5 -32 5 -7 1 -31 17 -53 37
l-40 36 -34 -29 c-31 -28 -61 -34 -111 -23 -5 1 -12 1 -15 0 -18 -7 -110 -3
-110 5 0 7 -3 7 -8 0 -4 -6 -23 -11 -42 -11 -64 -2 -195 -18 -195 -24 0 -1
-16 -3 -35 -5 -19 -1 -35 -3 -35 -5 0 -3 -41 -10 -72 -11 -13 -1 -23 -5 -23
-10 0 -5 -3 -8 -7 -8 -5 1 -10 0 -13 -1 -3 -1 -16 -3 -30 -5 -36 -4 -54 -9
-60 -17 -3 -4 -21 -10 -40 -13 -19 -3 -40 -11 -47 -17 -7 -6 -13 -7 -13 -4 0
4 -10 1 -22 -6 -13 -7 -25 -13 -28 -13 -3 -1 -25 -10 -50 -21 -25 -10 -48 -18
-52 -16 -5 1 -8 -2 -8 -7 0 -7 -36 -22 -49 -20 -2 0 -7 -4 -10 -9 -7 -10 -67
-43 -77 -41 -4 0 -10 -3 -13 -8 -3 -4 -14 -14 -24 -22 -15 -12 -17 -12 -11 3
3 9 9 16 13 16 3 0 18 10 33 23 41 35 69 52 79 50 5 -2 9 3 9 10 0 8 12 20 28
28 15 7 50 28 79 46 29 18 55 33 58 33 3 0 23 11 46 25 22 14 45 23 51 19 6
-4 8 -3 5 3 -4 6 3 14 16 18 12 4 24 8 27 9 3 2 23 10 45 19 22 10 44 17 49
16 5 0 12 4 16 10 3 6 15 13 26 16 10 2 33 8 51 14 17 5 34 7 37 3 3 -3 6 0 6
7 0 7 4 10 9 6 5 -3 13 0 16 6 4 5 13 8 21 5 8 -3 14 -2 14 3 0 5 15 11 33 14
75 12 100 17 117 22 32 10 64 16 105 20 74 6 170 17 172 18 6 7 203 0 203 -7z
m-314 -230 c12 1 26 4 33 8 6 4 11 2 11 -4 0 -6 6 -8 13 -4 17 10 -23 -33
-118 -127 -44 -44 -365 -364 -712 -711 l-633 -631 0 -668 0 -667 27 -3 c41 -6
2241 -2 2256 4 9 3 12 41 11 138 l-1 134 -1002 3 c-790 2 -1001 5 -1002 15 0
6 -2 217 -3 467 l-2 455 651 653 c357 358 653 651 657 650 4 -2 299 -294 655
-649 l648 -647 0 -806 0 -805 -32 -35 c-18 -19 -33 -40 -33 -47 0 -7 -2 -10
-5 -7 -3 2 -39 -29 -80 -69 -41 -41 -79 -72 -84 -69 -5 3 -11 -1 -15 -9 -3 -8
-12 -15 -19 -15 -8 0 -20 -7 -27 -15 -7 -8 -16 -12 -21 -9 -5 3 -9 2 -9 -3 0
-8 -54 -36 -66 -33 -4 1 -10 -2 -13 -7 -7 -9 -67 -43 -78 -45 -5 0 -19 -5 -33
-11 -14 -6 -28 -10 -32 -9 -5 1 -8 -3 -8 -10 0 -6 -3 -9 -6 -5 -4 3 -19 0 -34
-8 -15 -8 -39 -16 -53 -19 -15 -2 -31 -7 -37 -11 -6 -4 -23 -8 -38 -11 -15 -3
-34 -7 -42 -11 -19 -8 -39 -12 -67 -15 -13 -1 -23 -6 -23 -10 0 -4 -9 -5 -20
-3 -11 2 -20 0 -20 -4 0 -5 -12 -7 -27 -5 -15 1 -32 0 -37 -4 -14 -8 -65 -14
-138 -16 -32 0 -58 -3 -58 -7 0 -12 -290 0 -390 17 -25 4 -53 7 -62 8 -10 0
-18 3 -18 7 0 4 -9 5 -20 2 -11 -3 -20 -1 -20 4 0 5 -16 8 -35 8 -19 -1 -35 3
-35 8 0 5 -11 7 -25 5 -13 -3 -23 -2 -20 2 3 5 -81 33 -107 35 -3 0 -10 3 -14
7 -4 5 -13 8 -20 8 -8 0 -42 13 -76 29 -35 15 -74 32 -88 36 -14 4 -42 18 -62
31 -20 13 -43 25 -50 26 -7 2 -20 11 -29 20 -9 10 -18 15 -21 13 -3 -3 -42 19
-87 50 -45 30 -84 55 -86 55 -3 0 -14 8 -24 17 -37 34 -50 43 -61 43 -6 0 -8
5 -5 10 3 6 0 10 -8 10 -8 0 -17 6 -20 14 -5 11 174 14 1161 14 642 0 1177 1
1190 1 l22 1 0 796 0 796 -564 564 c-310 310 -568 564 -573 564 -5 0 -264
-253 -575 -562 l-566 -563 2 -365 1 -365 140 0 140 0 2 200 c1 110 2 247 3
305 l0 106 427 427 427 428 427 -428 428 -428 -1 -116 c-1 -63 2 -121 6 -127
4 -7 4 -12 -1 -12 -10 0 -9 -52 1 -68 4 -7 4 -12 -1 -12 -10 0 -9 -373 1 -389
4 -6 4 -11 -1 -11 -10 0 -9 -52 1 -68 4 -7 4 -12 -1 -12 -10 0 -9 -52 1 -68 4
-7 4 -12 -1 -12 -10 0 -9 -52 1 -68 4 -7 4 -12 -1 -12 -4 0 -7 -49 -7 -110 l2
-110 -27 -1 c-55 -1 -156 -1 -161 1 -7 2 -314 2 -320 0 -19 -6 -120 -3 -120 3
0 5 -5 5 -11 1 -11 -6 -273 -9 -434 -4 -38 1 -72 1 -75 0 -12 -4 -180 -4 -180
0 0 3 -125 4 -277 3 -153 -2 -316 -2 -363 -2 -47 0 -159 0 -250 0 l-165 -1
-25 37 c-14 20 -29 43 -35 51 -5 9 -18 25 -28 36 -9 11 -26 38 -38 60 -28 56
-42 80 -54 88 -5 4 -6 8 -2 8 5 0 1 7 -7 16 -9 8 -14 19 -11 24 3 5 2 10 -2
12 -8 3 -53 90 -53 100 0 3 -9 26 -20 52 -12 25 -21 48 -20 51 0 3 -6 18 -14
34 -9 16 -12 31 -9 35 4 3 1 6 -5 6 -6 0 -9 9 -7 20 2 11 0 22 -6 25 -5 4 -9
16 -9 29 0 12 -3 26 -7 30 -7 6 -9 16 -17 61 -2 11 -6 31 -10 45 -16 66 -24
117 -29 191 -2 25 -6 50 -9 55 -7 11 -2 357 6 402 3 17 8 44 11 60 3 15 8 43
10 62 2 19 10 53 17 76 8 23 14 48 12 57 -1 10 1 17 5 17 4 0 8 12 9 27 1 15
5 29 10 32 4 3 9 17 11 31 1 14 6 27 10 30 4 3 6 12 6 20 0 8 5 21 12 28 7 8
11 18 8 23 -4 5 -2 9 2 9 5 0 9 10 10 22 1 11 7 24 14 28 6 4 9 12 5 18 -3 6
-3 12 1 14 10 4 47 80 45 91 -1 4 3 7 8 7 5 0 10 3 9 8 -3 18 14 51 24 45 6
-4 8 0 4 10 -3 10 -2 17 3 17 5 0 17 15 26 33 9 17 22 35 28 39 6 4 7 8 3 8
-11 0 54 90 65 90 5 0 7 4 4 8 -3 5 8 24 25 43 16 19 29 30 29 26 0 -4 6 -2
14 5 8 7 12 16 9 21 -2 4 1 7 6 7 6 0 28 16 50 35 21 19 44 35 50 35 6 0 11 5
11 10 0 6 8 14 17 17 17 7 41 25 69 51 8 7 14 10 14 6 0 -4 9 2 20 14 12 12
26 22 31 22 6 0 23 9 39 20 15 11 30 17 34 13 3 -3 6 -2 6 4 0 9 50 37 58 33
2 -1 10 7 19 17 9 11 12 12 8 3 -6 -13 -5 -13 7 0 7 8 20 16 28 18 8 2 28 10
44 18 16 8 35 14 41 14 7 0 18 7 25 15 7 8 16 12 22 9 5 -3 14 -1 21 4 7 5 21
12 32 15 11 3 52 15 90 27 39 12 79 23 90 25 11 2 31 7 45 10 42 10 84 17 103
16 9 0 17 3 17 7 0 4 17 8 38 8 75 3 227 16 231 20 3 2 7 1 10 -4 3 -4 16 -7
27 -6z m426 -45 c13 -4 28 -6 35 -4 6 2 14 -1 18 -6 3 -6 17 -11 31 -11 13 0
24 -5 24 -10 0 -6 6 -10 13 -8 16 3 106 -23 113 -33 2 -4 12 -5 21 -2 12 5 14
3 8 -7 -5 -8 -4 -11 3 -6 6 3 27 -3 47 -14 19 -11 44 -20 54 -20 11 0 21 -4
23 -8 2 -5 38 -25 81 -46 42 -21 77 -43 77 -48 0 -5 4 -7 8 -4 5 3 18 -4 30
-14 12 -11 26 -20 31 -20 6 0 21 -11 34 -24 14 -14 27 -23 29 -20 3 2 17 -7
31 -20 15 -14 27 -23 27 -20 0 3 6 -1 14 -8 8 -7 11 -17 8 -22 -3 -5 -1 -6 5
-3 6 4 25 -7 43 -23 19 -17 37 -30 42 -30 5 0 13 -11 20 -25 6 -13 15 -22 20
-19 4 3 11 -2 14 -10 3 -9 10 -13 15 -10 5 3 9 1 9 -5 0 -5 24 -34 53 -63 59
-61 117 -128 111 -128 -5 0 25 -37 50 -61 11 -11 16 -19 12 -19 -7 0 -2 -7 39
-54 13 -16 22 -32 19 -37 -3 -5 -1 -9 4 -9 9 0 37 -50 34 -62 -1 -5 2 -8 7 -8
5 0 14 -13 21 -30 7 -16 17 -30 23 -30 6 0 7 -3 4 -7 -4 -3 2 -20 13 -38 11
-18 17 -35 13 -38 -3 -4 -1 -7 5 -7 6 0 9 -7 6 -15 -4 -8 -1 -15 6 -15 6 0 8
-4 5 -10 -3 -5 -1 -10 4 -10 6 0 11 -6 11 -14 0 -21 26 -67 34 -59 4 4 4 0 1
-8 -3 -9 0 -29 6 -45 11 -27 17 -50 21 -81 1 -7 5 -13 10 -13 5 0 6 -4 3 -10
-3 -5 0 -10 7 -10 11 0 10 -2 0 -9 -11 -7 -10 -9 3 -14 13 -5 14 -11 5 -27 -8
-15 -8 -20 1 -20 6 0 9 -7 5 -15 -3 -8 -2 -15 2 -15 4 0 8 -8 9 -17 1 -10 4
-34 8 -53 4 -19 8 -47 9 -62 0 -16 3 -28 6 -28 6 0 10 -54 13 -167 1 -40 6
-73 11 -73 5 0 3 -7 -4 -15 -9 -11 -9 -15 -1 -15 7 0 9 -5 6 -10 -3 -6 -8 -38
-10 -73 -10 -154 -15 -209 -20 -217 -3 -6 -8 -27 -11 -47 -3 -21 -6 -45 -8
-53 -2 -8 -6 -32 -11 -53 -4 -20 -11 -40 -16 -42 -4 -3 -6 -12 -2 -20 3 -8 0
-15 -7 -15 -7 0 -10 -6 -7 -14 3 -8 3 -17 -1 -21 -4 -4 -7 -10 -8 -13 -3 -30
-24 -87 -62 -172 -8 -19 -11 135 -11 606 l-1 630 -191 192 c-105 106 -194 192
-199 192 -5 0 -10 4 -12 10 -1 5 -236 243 -522 529 -479 480 -516 519 -483
515 20 -2 46 -8 59 -13z m-2182 -506 c-7 -8 -17 -15 -23 -15 -6 0 -2 7 9 15
25 19 30 19 14 0z m-33 -53 c-16 -18 -78 -135 -79 -149 0 -5 -9 -20 -20 -35
-11 -16 -17 -28 -14 -28 4 0 -5 -22 -18 -49 -14 -27 -22 -51 -19 -55 4 -3 1
-6 -5 -6 -7 0 -11 -3 -10 -7 1 -5 -4 -28 -11 -53 -7 -25 -13 -47 -13 -50 0 -3
-3 -9 -8 -15 -4 -5 -11 -26 -15 -45 -4 -19 -10 -39 -13 -45 -4 -5 -7 -14 -8
-20 -3 -19 -23 -120 -29 -145 -8 -37 -17 -91 -20 -120 -2 -14 -4 -25 -5 -25
-2 0 -12 -117 -13 -170 -1 -27 -6 -53 -12 -57 -7 -5 -7 -8 0 -8 6 0 11 -51 11
-129 1 -70 6 -137 12 -148 6 -11 7 -25 2 -33 -5 -8 -6 -19 -2 -25 4 -5 8 -26
9 -45 2 -34 9 -82 14 -87 1 -2 3 -12 4 -23 1 -11 4 -23 5 -27 2 -5 4 -12 5
-18 1 -5 5 -26 9 -45 4 -19 8 -42 10 -50 2 -8 6 -22 9 -30 11 -26 31 -105 29
-112 -1 -5 2 -8 8 -8 5 0 10 -11 10 -25 0 -14 5 -25 11 -25 5 0 7 -4 4 -10 -3
-5 4 -31 17 -57 12 -26 22 -55 22 -63 0 -8 6 -19 13 -25 6 -5 13 -19 15 -30 2
-11 5 -22 9 -25 9 -9 43 -85 41 -92 -1 -5 2 -8 8 -8 5 0 17 -17 26 -37 10 -21
29 -53 42 -70 13 -18 21 -33 16 -33 -4 0 2 -9 14 -20 12 -12 22 -27 22 -35 0
-8 4 -15 8 -15 5 0 18 -18 31 -40 12 -22 26 -40 32 -40 5 0 9 -4 9 -10 0 -11
18 -34 77 -99 24 -25 43 -50 43 -54 0 -13 27 -37 34 -30 3 4 6 1 6 -6 0 -14
25 -42 32 -36 2 2 12 -9 23 -25 11 -16 30 -35 42 -41 13 -7 23 -18 23 -26 0
-7 4 -13 8 -13 5 0 22 -11 38 -25 16 -14 42 -36 58 -48 15 -12 35 -30 44 -39
9 -9 19 -15 24 -12 4 3 8 -1 8 -9 0 -7 16 -19 35 -27 19 -7 32 -17 29 -22 -3
-4 1 -8 8 -8 7 0 31 -14 52 -30 22 -17 46 -30 54 -30 9 0 12 -3 9 -7 -8 -7 38
-33 59 -33 8 0 14 -3 14 -8 0 -4 17 -15 38 -24 20 -10 48 -24 62 -32 25 -14
108 -52 145 -66 11 -4 37 -16 58 -25 21 -9 50 -19 65 -21 14 -3 32 -10 39 -15
7 -6 16 -8 21 -5 5 3 21 -2 37 -10 15 -8 30 -12 33 -10 2 3 14 0 25 -6 20 -10
187 -47 232 -51 11 -1 23 -6 27 -12 5 -6 8 -5 8 3 0 9 5 10 18 4 9 -5 29 -9
45 -8 15 1 27 -1 27 -4 0 -6 80 -9 245 -9 157 -1 244 3 239 10 -2 4 9 7 24 7
54 -1 97 6 111 16 12 9 13 8 6 -4 -7 -12 -6 -13 6 -4 8 6 37 15 64 19 28 5 57
10 65 12 8 2 24 5 35 6 12 2 26 6 31 10 6 3 26 9 44 12 18 3 42 11 54 17 11 6
21 10 21 9 0 -3 4 -1 95 30 36 12 71 27 78 32 6 5 12 6 12 1 0 -5 4 -4 8 1 8
12 94 52 101 47 2 -2 8 2 13 10 8 10 9 10 5 -2 -2 -8 -9 -15 -16 -15 -6 0 -16
-7 -21 -15 -5 -8 -10 -11 -10 -7 0 5 -7 1 -16 -7 -8 -9 -20 -14 -25 -11 -5 4
-9 1 -9 -5 0 -5 -25 -22 -55 -36 -30 -15 -55 -31 -55 -36 0 -5 -4 -7 -9 -3 -5
3 -16 -2 -25 -10 -8 -9 -17 -15 -18 -14 -2 1 -25 -8 -52 -19 -27 -12 -52 -22
-57 -22 -5 0 -9 -4 -9 -10 0 -5 -3 -9 -7 -9 -15 3 -74 -14 -79 -22 -3 -5 -11
-9 -19 -9 -8 0 -26 -5 -42 -12 -15 -6 -31 -12 -35 -13 -5 -2 -9 -3 -10 -5 -2
-1 -12 -3 -23 -6 -11 -2 -35 -6 -52 -10 -18 -3 -33 -10 -33 -13 0 -4 -10 -7
-22 -6 -13 1 -27 0 -33 -4 -11 -6 -14 -7 -70 -16 -22 -3 -48 -8 -58 -11 -10
-3 -32 -7 -50 -10 -18 -2 -50 -6 -72 -9 -22 -3 -87 -8 -145 -11 -58 -3 -109
-6 -115 -6 -5 -1 -21 2 -34 6 -15 6 -21 5 -17 -2 4 -7 -4 -8 -26 -1 -41 11
-41 11 -32 -2 4 -8 0 -8 -14 0 -12 6 -34 11 -49 11 -33 0 -138 8 -138 10 0 2
-9 4 -20 5 -11 2 -37 5 -57 8 -21 3 -41 8 -46 11 -5 3 -25 6 -45 8 -21 1 -37
6 -37 11 0 5 -6 7 -14 4 -7 -3 -26 1 -42 9 -15 8 -33 13 -41 10 -7 -3 -15 -1
-18 5 -4 5 -10 7 -15 4 -5 -3 -11 -1 -15 5 -3 5 -17 10 -30 10 -13 0 -26 4
-30 10 -3 5 -12 7 -20 3 -8 -3 -15 1 -15 8 0 7 -3 9 -7 6 -3 -4 -15 1 -26 10
-11 10 -17 12 -13 6 5 -9 -1 -8 -21 2 -64 33 -96 44 -106 38 -6 -3 -7 -1 -3 5
5 8 0 12 -13 12 -12 0 -21 5 -21 10 0 6 -6 10 -14 10 -7 0 -46 18 -86 40 -40
22 -77 40 -81 40 -5 0 -9 5 -9 10 0 6 -7 10 -15 10 -8 0 -15 5 -15 10 0 6 -7
10 -15 10 -8 0 -15 5 -15 10 0 6 -6 10 -13 10 -7 0 -23 9 -35 20 -12 11 -26
20 -32 20 -5 0 -10 4 -10 8 0 4 -14 16 -30 26 -17 9 -41 28 -55 42 -13 13 -27
24 -30 24 -8 0 -43 32 -163 152 -110 109 -132 133 -132 142 0 3 -15 20 -32 38
-34 35 -79 96 -112 151 -10 18 -22 34 -26 37 -4 3 -31 48 -60 100 -30 52 -58
98 -64 102 -6 4 -7 8 -2 8 4 0 1 11 -7 23 -8 13 -17 32 -19 43 -2 10 -9 25
-16 33 -7 7 -16 26 -19 42 -3 16 -10 29 -15 29 -5 0 -7 4 -3 9 3 5 1 12 -4 15
-5 3 -12 22 -15 41 -4 19 -10 35 -14 35 -4 0 -8 8 -9 18 -1 21 -7 45 -26 102
-8 25 -18 59 -23 75 -4 17 -8 32 -9 35 0 3 -5 28 -10 55 -4 28 -10 57 -12 65
-2 8 -6 33 -8 55 -2 22 -4 40 -5 40 -2 0 -9 70 -14 140 -2 39 -5 75 -6 80 -1
6 -1 12 0 15 7 19 7 41 -1 46 -5 3 -5 13 1 25 8 13 7 19 0 19 -8 0 -8 6 0 20
7 13 7 20 1 20 -7 0 -7 9 -1 25 6 17 6 25 -1 25 -6 0 -7 5 -2 13 8 12 11 41
16 134 1 29 5 53 9 53 4 0 7 8 6 18 0 28 11 95 21 130 5 18 10 33 10 35 -1 1
3 15 7 31 4 16 8 36 9 45 1 9 4 23 7 31 18 50 32 97 33 113 1 10 6 22 11 25 5
4 11 16 12 27 2 11 8 22 13 23 5 2 6 8 3 13 -3 6 0 16 6 24 6 8 9 19 5 25 -3
5 1 10 10 10 9 0 14 4 11 9 -3 5 5 29 18 54 14 25 22 48 19 51 -4 3 -1 6 5 6
7 0 12 3 11 8 -2 15 14 52 22 52 5 0 9 7 9 15 0 8 4 15 9 15 5 0 15 17 22 38
6 20 16 40 21 43 5 3 17 21 27 40 11 19 24 33 30 32 6 -2 8 3 5 10 -2 7 4 22
14 32 10 11 28 37 41 58 12 20 27 34 33 31 5 -4 3 -13 -5 -22z"/>
</g>
</svg>
